<?xml version="1.0" encoding="UTF-8"?>
<svg width="24" height="24" version="1.1" viewBox="0 0 24 24" xmlns="http://www.w3.org/2000/svg">
 <style>path{fill:#000}@media (prefers-color-scheme:dark){path{fill:#fff}}</style>
 <path d="m12.472 1.5798c-1.1248-0.04841-1.734 1.2583-2.1286 2.2833-0.14868 0.40029-0.33009 1.4809-0.50654 2.7275h-0.02004c-0.2647-1.2009-0.51579-2.2294-0.68244-2.5839-0.35454-0.80875-0.92448-1.8128-1.7267-2.1052-0.33657-0.12254-0.71624-0.12147-1.1378 0.07459-1.4165 0.64864-0.84649 2.2569-0.3351 3.4055 0.17972 0.38886 0.81051 1.2808 1.5686 2.2856-0.0032 0.0049-0.0073 0.0079-0.01224 0.01447-1.0359-0.66497-1.9397-1.212-2.3089-1.346-0.05555-0.01961-0.11315-0.04333-0.17033-0.06457-1.1666-0.42643-2.7789-0.74559-3.292 0.65461-0.54244 1.4639 0.99617 2.1937 2.1709 2.6463h0.0022c0.40192 0.14868 1.4787 0.33172 2.7253 0.50654v0.02004c-1.2041 0.26468-2.2289 0.51572-2.585 0.6791-1.1502 0.50649-2.6913 1.4464-2.0329 2.8678 0.1977 0.42643 0.48103 0.67234 0.8127 0.79488 0.7679 0.28102 1.7907-0.10524 2.5962-0.45978 0.38722-0.18136 1.278-0.81437 2.2845-1.5708 0.0032 0.0065 0.0096 0.0079 0.01447 0.01447-0.66334 1.0359-1.2109 1.9413-1.3448 2.3089-0.45584 1.1715-0.88205 2.9215 0.59004 3.4623 0 0 0.0011 9e-5 0.0011 0.0034 1.1649 0.42643 1.8633-0.46452 2.329-1.435-0.28756-0.31206-0.5201-0.68388-0.68021-1.1021-0.30063-0.78261-0.3268-1.6739-0.07682-2.5104l0.35959-1.2057c-0.40683-0.20586-0.73671-0.521-0.95074-0.89842-0.3235-0.56694-0.4071-1.2721-0.16365-1.9338 0.43624-1.1911 1.7608-1.8039 2.9535-1.3693 0.41663 0.15522 0.75709 0.41802 1.012 0.74479 0.26468-0.06862 0.53539-0.10576 0.80824-0.10576 0.3039 0 0.60314 0.04418 0.89396 0.12914l0.04231 0.01113c0.34801 0.10293 0.67558 0.26586 0.96967 0.48316h1.681c1.1126-0.52612 2.4239-1.4305 1.808-2.7621-0.1977-0.42807-0.4805-0.67405-0.81381-0.79822-0.76627-0.27939-1.7901 0.10695-2.5939 0.46312-0.38722 0.17972-1.2796 0.81214-2.2845 1.5686-0.0049-0.0049-0.0112-9e-3 -0.01447-0.01558 0.66334-1.0326 1.2086-1.9375 1.3426-2.3067 0.45748-1.1715 0.88487-2.9226-0.58559-3.4634-0.0017 0-0.0018-7.4e-5 -0.0034-0.0033-0.18256-0.06699-0.35474-0.10219-0.51543-0.1091zm0.07459 8.0512c-0.50812 0-1.0138 0.20447-1.4239 0.56555-0.36598 0.32513-0.63782 0.75464-0.78486 1.2513l-0.61564 2.0596c-0.16992 0.57511-0.15361 1.1789 0.04899 1.7067 0.23691 0.62086 0.71569 1.0767 1.3137 1.258h0.0011l0.01892 0.0056c0.14704 0.04248 0.30234 0.07192 0.45756 0.07682v1.7133c0 2.7628 1.9261 4.1537 4.3785 4.1537 2.4508 0 4.4954-1.3908 4.4954-4.1537v-1.7133c0.15358-0.0049 0.3094-0.03434 0.45644-0.07682l0.02004-0.0056h0.0011c0.59635-0.18136 1.0768-0.63715 1.3137-1.258 0.20096-0.52773 0.21943-1.1315 0.04787-1.7067l-0.61681-2.0596c-0.14704-0.49669-0.41777-0.92619-0.78375-1.2513-0.41009-0.36108-0.91465-0.56555-1.4228-0.56555-0.18952 0-0.37469 0.02958-0.55441 0.0835h-0.0033l-0.01779 0.0056c-0.33167 0.09803-0.62537 0.28388-0.86391 0.53549h-4.0279c-0.23854-0.25161-0.53224-0.43746-0.86391-0.53549l-0.0167-0.0056h-0.0033c-0.1797-0.0539-0.3665-0.08348-0.55439-0.08348zm2.0084 1.7768h2.889c-0.07679 0.41336-0.05456 0.85043 0.07125 1.2736l0.61676 2.0629c0.14705 0.49342 0.41777 0.92567 0.78375 1.2524 0.116 0.09966 0.24165 0.19092 0.37072 0.26608v2.005c0 0.96397-0.31185 1.7153-0.92291 2.2332-0.58328 0.49342-1.4438 0.76816-2.4225 0.76816-0.97704 0-1.7891-0.26079-2.3479-0.75258-0.58492-0.51303-0.88061-1.2702-0.88061-2.2488v-2.005c0.12907-0.07516 0.25249-0.16641 0.3685-0.26608 0.36762-0.32677 0.63945-0.75902 0.78486-1.2524l0.61564-2.0629c0.12744-0.42316 0.15027-0.86023 0.07348-1.2736zm2.5617 3.4256c-0.3186 0-0.57668 0.25749-0.57668 0.57445 0 0.32187 0.25808 0.57891 0.57668 0.57891s0.57445-0.25704 0.57445-0.57891c0-0.31697-0.25585-0.57445-0.57445-0.57445zm-2.2344 0.0011c-0.3186 0-0.57668 0.2592-0.57668 0.57779 0 0.31697 0.25808 0.57557 0.57668 0.57557s0.57557-0.2586 0.57557-0.57557c0-0.3186-0.25697-0.57779-0.57557-0.57779zm1.1177 3.2608c-0.93619 0-1.6944 0.52121-1.6944 1.16s0.75822 1.1567 1.6944 1.1567c0.93456 0 1.6922-0.51787 1.6922-1.1567s-0.75763-1.16-1.6922-1.16z" stroke-width=".57"/>
</svg>
