<?xml version="1.0" encoding="UTF-8"?>
<svg xmlns="http://www.w3.org/2000/svg" width="24" height="24" viewBox="0 0 24 24" version="1.1">
 <style>path{fill:#000}@media (prefers-color-scheme:dark){path{fill:#fff}}</style>
 <path d="M6.7 16.91h10.55l.29.01c.72.01 1.02.27 1.01.85 0 .57-.32.85-1.03.85H6.92c-.26 0-.53-.03-.8-.07a.82.82 0 0 1-.76-.78c0-.36.38-.8.77-.84.17-.02.35-.01.57-.02Zm9.16-5.3c-.55-.37-.7-.68-.45-1.17a76 76 0 0 1 1.84-3.45c.3-.5.78-.56 1.23-.26.41.29.4.67.21 1.06-.43.85-.87 1.7-1.33 2.53-.18.35-.4.69-.63 1.01-.2.3-.48.4-.87.27Zm5.32-.47c.16-.12.3-.23.45-.32.46-.28.84-.2 1.21.26.31.4.16.74-.17 1a85.75 85.75 0 0 1-3.15 2.39c-.48.34-.85.23-1.2-.23-.27-.34-.23-.72.21-1.08.86-.69 1.74-1.34 2.65-2.02ZM5.77 14.36c-.33.38-.7.4-1.05.15-1.05-.77-2.1-1.53-3.12-2.35-.55-.45-.5-.87.03-1.32.28-.23.57-.28.87-.06 1.07.79 2.14 1.56 3.18 2.36.47.36.47.65.09 1.22Zm-.23-6.42c-.26-.6-.14-1.04.33-1.3.4-.21.84-.06 1.15.47.59 1.05 1.17 2.1 1.74 3.18.28.54.17 1-.26 1.25-.4.23-.87.1-1.17-.4-.62-1.05-1.18-2.11-1.79-3.2Zm6.83-2.4c.4.12.54.39.54.74v4.05c-.01.45-.32.7-.79.7-.43 0-.82-.28-.82-.68-.03-1.37-.04-2.73-.02-4.1.01-.56.29-.72 1.1-.7Zm0 0"/>
</svg>
