<?xml version="1.0" encoding="UTF-8"?>
<svg width="24" height="24" version="1.1" viewBox="0 0 24 24" xmlns="http://www.w3.org/2000/svg">
 <style>path{fill:#000}@media (prefers-color-scheme:dark){path{fill:#fff}}</style>
 <path d="m12 2.3044c-2.4391 0-4.7723 0.9119-6.5672 2.5695-1.7847 1.6455-2.8837 3.8764-3.0916 6.2811-0.04294 0.48095 0.31282 0.90395 0.79377 0.94518 0.02577 0.0034 0.05166 0.0034 0.0757 0.0034 0.44831 0 0.82885-0.34364 0.86836-0.79711 0.17005-1.9702 1.072-3.7994 2.5372-5.1512 1.472-1.3587 3.3845-2.1063 5.3838-2.1063 1.4171 0 2.8095 0.37971 4.0256 1.0977 0.9619 0.56683 1.7916 1.3347 2.4392 2.2399l-0.96744 0.55998c-0.10306 0.06012-0.16588 0.17033-0.16588 0.29057 0 0.11852 0.06505 0.22994 0.16811 0.28834l4.0223 2.3156-0.0067-4.6424c0-0.12024-0.06505-0.23045-0.1681-0.29057-0.10134-0.0584-0.22981-0.059-0.33287 0.0011l-1.032 0.59783c-0.80213-1.1629-1.8509-2.1448-3.0704-2.8645-1.4858-0.8743-3.1838-1.3382-4.9118-1.3382zm-0.92402 5.9917-2.5828 7.4067h1.582l0.63346-1.8514h2.5806l0.63457 1.8514h1.5809l-2.5817-7.4067zm0.90176 1.4161h0.02338l0.87393 3.1639h-1.749zm8.8873 2.1876c-0.47923-0.04122-0.90284 0.31454-0.94406 0.79377-0.17177 1.9719-1.072 3.8011-2.5372 5.1512-1.472 1.3587-3.3845 2.1063-5.3838 2.1063-1.4188 0-2.8095-0.37971-4.0256-1.0977-0.9619-0.56683-1.7939-1.333-2.4414-2.2399l0.96967-0.55998c0.10306-0.06012 0.16588-0.17033 0.16588-0.29057 0-0.11852-0.06504-0.22883-0.16811-0.28723l-4.0245-2.3145 0.0089 4.6424c0 0.11852 0.06282 0.22883 0.16588 0.28723 0.05153 0.03092 0.11031 0.04453 0.16699 0.04453 0.0584 0 0.11486-0.01361 0.16811-0.04453l1.032-0.59783c0.80215 1.1611 1.8509 2.1448 3.0704 2.8645 1.4841 0.8743 3.1821 1.3382 4.9118 1.3382 2.4374 0 4.7706-0.91139 6.5672-2.5672 1.7847-1.6472 2.882-3.8769 3.0916-6.2834 0.04294-0.47923-0.31282-0.90395-0.79377-0.94518z" stroke-width=".57"/>
</svg>
