<?xml version="1.0" encoding="UTF-8"?>
<svg width="24" height="24" version="1.1" viewBox="0 0 24 24" xmlns="http://www.w3.org/2000/svg">
 <style>path{fill:#000}@media (prefers-color-scheme:dark){path{fill:#fff}}</style>
 <path d="m13.498 2.4081c-0.40283 0.01077-0.75702 0.30599-0.82939 0.71918-0.08422 0.47222 0.23321 0.9218 0.70693 1.0075 3.7898 0.66772 6.5416 3.9471 6.5416 7.7985 0 4.3688-3.5515 7.9199-7.9188 7.9199-0.23009 0-0.46315-0.0109-0.69024-0.02894-1.8738-0.15941-3.5726-0.95307-4.9096-2.29-1.4964-1.4949-2.319-3.485-2.319-5.6009 0-2.5596 1.2561-4.9642 3.3209-6.4426l0.56443 0.96744c0.05715 0.10076 0.16541 0.16477 0.28723 0.16477 0.11881 0 0.22635-0.06401 0.285-0.16477l2.3078-4.0112-4.6268 0.0089c-0.11881 0-0.22707 0.06361-0.28723 0.16588-0.05865 0.10377-0.05492 0.22799 0.0022 0.33176l0.59561 1.0276c-1.158 0.79856-2.1356 1.8442-2.8545 3.0593-0.87376 1.4783-1.3326 3.1709-1.3326 4.8929 0 2.5807 1.0039 5.0058 2.8266 6.83 1.6107 1.6076 3.7359 2.5981 5.9917 2.7921 0.27671 0.02256 0.56008 0.03674 0.8383 0.03674 5.3268 0 9.6588-4.3336 9.6588-9.6588 0-2.2814-0.81315-4.4981-2.2945-6.2411-1.4588-1.7219-3.4793-2.8828-5.69-3.2708-0.05884-0.01053-0.11724-0.0149-0.17479-0.01336zm-2.3991 5.8347-2.5928 7.3799h1.5764l0.63123-1.8347h2.5683l0.63457 1.8347h1.5731l-2.5906-7.3799zm0.88061 1.4339h0.01892l0.94406 2.9535h-1.8859z" stroke-width=".57"/>
</svg>
