<?xml version="1.0" encoding="UTF-8"?>
<svg width="24" height="24" version="1.1" viewBox="0 0 24 24" xmlns="http://www.w3.org/2000/svg">
 <style>path{fill:#000}@media (prefers-color-scheme:dark){path{fill:#fff}}</style>
 <path d="m14.67 1.4973-0.74479 1.8692c-0.29 0.03222-0.57288 0.09316-0.84498 0.16477l-1.4072-1.4361 0.02449 2.0084c-0.24704 0.14321-0.4867 0.30081-0.71584 0.47982l-1.8469-0.79488 0.79154 1.8514c-0.17543 0.22556-0.33328 0.46546-0.47648 0.7125l-2.0162-0.0256 1.4428 1.4038c-0.07518 0.27568-0.1323 0.55856-0.16811 0.84498l-1.8692 0.74812 1.8692 0.74813c0.0358 0.28642 0.09292 0.56954 0.16811 0.84164l-1.4428 1.4038 2.0162-0.02227c0.14321 0.25062 0.30105 0.48695 0.47648 0.7125l-0.65572 1.5341-0.78486 0.3351c-0.13963-0.10383-0.2827-0.20377-0.43307-0.28611l0.01447-1.2246-0.85166 0.87727c-0.16469-0.04654-0.34026-0.08229-0.51211-0.1002l-0.45533-1.1355-0.45088 1.1355c-0.17901 0.0179-0.34742 0.05365-0.51211 0.1002l-0.855-0.87727 0.01447 1.2246c-0.15037 0.08234-0.29726 0.18228-0.42973 0.28611l-1.1278-0.47982 0.48316 1.1244c-0.10383 0.13605-0.20464 0.2827-0.29057 0.43307l-1.2202-0.01781 0.87281 0.85166c-0.04654 0.16469-0.07871 0.34026-0.1002 0.51211l-1.1344 0.45533 1.1344 0.45088c0.02148 0.17901 0.05365 0.34742 0.1002 0.51211l-0.87281 0.85166 1.2202-0.01447c0.08592 0.15395 0.18674 0.29789 0.29057 0.43752l-0.48316 1.12 1.1278-0.48316c0.13247 0.10741 0.27936 0.20353 0.42973 0.28945l-0.01447 1.2213 0.855-0.87393c0.16469 0.04655 0.3331 0.08317 0.51211 0.10465l0.45088 1.1311 0.45533-1.1311c0.17185-0.02148 0.34742-0.0581 0.51211-0.10465l0.85166 0.87393-0.01447-1.2213c0.15037-0.08592 0.29344-0.18205 0.43307-0.28945l1.1244 0.48316-0.48316-1.12c0.10741-0.13963 0.20464-0.28357 0.29057-0.43752l1.2202 0.01447-0.87727-0.85166c0.04654-0.16469 0.08293-0.3331 0.10799-0.51211l1.1311-0.45088-1.1311-0.45533c-0.02506-0.17185-0.06145-0.34742-0.10799-0.51211l0.87727-0.85166-1.2202 0.01781c-0.08593-0.15037-0.18316-0.29702-0.29057-0.43307l0.34734-0.80824 1.5074-0.64904c0.22914 0.17543 0.4688 0.3402 0.71584 0.47982l-0.02449 2.0117 1.4072-1.4395c0.2721 0.0716 0.55498 0.12896 0.84498 0.16477l0.74478 1.8692 0.74812-1.8692c0.29-0.0358 0.57288-0.09316 0.84498-0.16477l1.4072 1.4395-0.02894-2.0117c0.25062-0.13963 0.49004-0.30439 0.71918-0.47982l1.848 0.79488-0.79488-1.8514c0.17901-0.22555 0.33662-0.46188 0.47982-0.7125l2.015 0.02226-1.4428-1.4038c0.07519-0.2721 0.1323-0.55522 0.16811-0.84164l1.8692-0.74812-1.8692-0.74812c-0.0358-0.28642-0.09292-0.5693-0.16811-0.84498l1.4428-1.4038-2.015 0.0256c-0.14321-0.24703-0.30081-0.48694-0.47982-0.7125l0.79488-1.8514-1.848 0.79488c-0.22914-0.17901-0.46856-0.33662-0.71918-0.47982l0.02895-2.0084-1.4072 1.4361c-0.2721-0.0716-0.55498-0.13254-0.84498-0.16477zm0 2.9569c0.39024 0 0.7125 0.31892 0.7125 0.70916s-0.32226 0.70582-0.7125 0.70582c-0.38666 0-0.70582-0.31558-0.70582-0.70582s0.31916-0.70916 0.70582-0.70916zm0 2.1453c0.73395 0 1.3281 0.59444 1.3281 1.3248 0 0.73395-0.5942 1.3248-1.3281 1.3248-0.73037 0-1.3248-0.59086-1.3248-1.3248 0-0.73037 0.59444-1.3248 1.3248-1.3248zm-3.4556 0.6123c0.39024 0 0.70916 0.31422 0.70916 0.70805 0 0.39024-0.31892 0.70582-0.70916 0.70582s-0.70471-0.31558-0.70471-0.70582c0-0.39382 0.31446-0.70805 0.70471-0.70805zm6.9135 0c0.39024 0 0.70916 0.31422 0.70916 0.70805 0 0.39024-0.31892 0.70582-0.70916 0.70582s-0.70471-0.31558-0.70471-0.70582c0-0.39382 0.31446-0.70805 0.70471-0.70805zm-5.5887 2.427c0.73395 0 1.3248 0.59444 1.3248 1.3248 0 0.73395-0.59086 1.3281-1.3248 1.3281-0.73037 0-1.3248-0.5942-1.3248-1.3281 0-0.73037 0.59444-1.3248 1.3248-1.3248zm4.2639 0c0.73037 0 1.3248 0.59444 1.3248 1.3248 0 0.73395-0.59444 1.3281-1.3248 1.3281-0.73395 0-1.3281-0.5942-1.3281-1.3281 0-0.73037 0.5942-1.3248 1.3281-1.3248zm-2.133 3.1361c0.39024 0 0.7125 0.3225 0.7125 0.70916 0 0.39024-0.32226 0.70582-0.7125 0.70582-0.38666 0-0.70582-0.31558-0.70582-0.70582 0-0.38666 0.31916-0.70916 0.70582-0.70916zm-8.422 2.4347c0.35086 0 0.63012 0.2795 0.63012 0.62678 0 0.35086-0.27926 0.63346-0.63012 0.63346-0.34728 0-0.63012-0.28259-0.63012-0.63346 0-0.34728 0.28284-0.62678 0.63012-0.62678zm-1.926 1.5219c0.35086 0 0.63012 0.28308 0.63012 0.62678 0 0.35086-0.27926 0.63346-0.63012 0.63346-0.34728 0-0.63012-0.2826-0.63012-0.63346 0-0.3437 0.28284-0.62678 0.63012-0.62678zm3.8531 0c0.34728 0 0.63346 0.28308 0.63346 0.62678 0 0.35086-0.28618 0.63346-0.63346 0.63346-0.34728 0-0.63457-0.2826-0.63457-0.63346 0-0.3437 0.28729-0.62678 0.63457-0.62678zm-1.9271 0.48316c0.35086 0 0.63012 0.27925 0.63012 0.63012 0 0.34728-0.27926 0.63012-0.63012 0.63012-0.34728 0-0.63012-0.28284-0.63012-0.63012 0-0.35086 0.28284-0.63012 0.63012-0.63012zm-1.0665 1.8258c0.3437 0 0.63012 0.28284 0.63012 0.63012s-0.28642 0.63346-0.63012 0.63346c-0.34728 0-0.63346-0.28618-0.63346-0.63346s0.28618-0.63012 0.63346-0.63012zm2.1342 0c0.35086 0 0.63346 0.28284 0.63346 0.63012s-0.2826 0.63346-0.63346 0.63346c-0.34728 0-0.62678-0.28618-0.62678-0.63346s0.27949-0.63012 0.62678-0.63012z" stroke-width=".57"/>
</svg>
