<?xml version="1.0" encoding="UTF-8"?>
<svg width="24" height="24" version="1.1" viewBox="0 0 24 24" xmlns="http://www.w3.org/2000/svg">
 <style>path{fill:#000}@media (prefers-color-scheme:dark){path{fill:#fff}}</style>
 <path d="m8.0485 1.8535c-2.4624 0-4.4643 2.0041-4.4643 4.4665v2.5895h-1.9538v7.7217c0 1.907 1.5524 3.4601 3.4612 3.4601h5.2669c-0.5338-0.36126-0.93183-0.90598-1.1044-1.553-0.21028-0.78366-0.06054-1.6011 0.3852-2.2499 0.06472-1.3336 0.52234-2.6368 1.3203-3.7206 0.86632-1.179 2.1071-2.0544 3.5091-2.4804v-1.1778h-1.9538v-2.5895c0-2.4624-2.0023-4.4665-4.4665-4.4665zm0 1.9271c1.4019 0 2.5416 1.1393 2.5416 2.5394v2.5895h-5.081v-2.5895c0-1.4001 1.1393-2.5394 2.5394-2.5394zm8.4042 7.2942c-0.0773 0-0.15386 0.0109-0.22935 0.01448v-0.0089c-0.01978 0.0018-0.03923 0.0015-0.05901 0.0034l-0.0022-0.0022c-0.09527 0.0072-0.18708 0.0168-0.28054 0.03117-0.28758 0.03057-0.57635 0.07523-0.86391 0.15253-2.5253 0.67579-4.1725 2.9926-4.1024 5.4963-0.38642 0.35409-0.56571 0.90223-0.42193 1.445 0.14559 0.53921 0.57902 0.92725 1.0877 1.0387 0.96516 1.7848 2.843 2.9012 4.865 2.9012 0.47451 0 0.95402-0.06097 1.4339-0.19023 2.545-0.68126 4.199-3.0301 4.1001-5.5554 0.32897-0.35228 0.47438-0.863 0.33952-1.3627-0.13465-0.50146-0.51424-0.86955-0.97626-1.0097-0.9562-1.8153-2.8507-2.9535-4.8906-2.9535zm0 1.2836c0.76746 0 1.5266 0.21039 2.1898 0.61118 0.66681 0.40081 1.2058 0.97246 1.5653 1.6555 0.15996 0.30195 0.43326 0.52792 0.76037 0.62678 0.02695 9e-3 0.09199 0.03824 0.11356 0.11911 0.02156 0.07908-0.02142 0.13566-0.04119 0.15365-0.23187 0.25162-0.35615 0.58475-0.34178 0.92623 0.03595 0.94541-0.25415 1.8919-0.81492 2.663-0.57695 0.79443-1.3837 1.3468-2.3345 1.602-0.36307 0.09884-0.73301 0.14695-1.1033 0.14695-0.76207 0-1.5135-0.20645-2.1731-0.60007-0.65961-0.39181-1.2-0.95428-1.563-1.6265-0.17614-0.32711-0.48748-0.56217-0.85055-0.64124-0.01797-0.0036-0.10287-0.02969-0.12803-0.12135-0.02335-0.09345 0.03753-0.15442 0.05011-0.167 0.27498-0.24982 0.42826-0.60942 0.41747-0.97968-0.02695-0.94 0.2675-1.8764 0.82828-2.6385 0.40262-0.54819 0.92026-0.97188 1.5152-1.2703l0.0022 0.02116 0.0056 0.04009 0.0034 0.02114 0.0034 0.03451c9e-3 0.04675 0.01594 0.09201 0.02672 0.13695 0.03953 0.15457 0.10058 0.29937 0.18146 0.43416 0.08447 0.12941 0.18555 0.25072 0.30059 0.34958 0.11502 0.10065 0.24413 0.17935 0.38074 0.24047 0.13839 0.05752 0.28482 0.09473 0.42862 0.1091 0.0611 0.0018 0.11991 0.0062 0.17922 0.0044l0.12247-0.72474h-0.0078l-0.01892-0.0034c0.0087-3.88e-4 0.02156-0.0011 0.01002 0v-0.0022h-0.0067l-0.02673-0.0067c-0.03593-0.0072-0.06853-0.02415-0.09908-0.03673-0.0647-0.02876-0.1229-0.0611-0.17144-0.10242-0.05033-0.04315-0.0932-0.08953-0.12913-0.13805-0.03417-0.05392-0.06107-0.1075-0.07904-0.16142-0.01978-0.05392-0.02869-0.11334-0.0323-0.16366 0.0018-0.0072 0.0022-0.01506 0.0022-0.02225l-0.0022-0.0044 0.0022-0.01894v-0.03895l0.0011-0.02672 0.0022-0.0044v-0.0089c0.0036-0.01437 0.0048-0.0268 0.0067-0.04119 0.01437-0.04851 0.0312-0.09867 0.05455-0.14361 0.02697-0.04313 0.0556-0.08471 0.08796-0.12245 0.01079-0.0108 0.02372-0.0173 0.03451-0.02449 0.21567-0.03415 0.43046-0.05567 0.64794-0.05567zm1.4795 3.1272c-0.04673 0-0.09199 7e-3 -0.13693 0.01782-0.30915 0.08268-0.48714 0.4355-0.39187 0.78596 0.0773 0.29656 0.32352 0.50321 0.59673 0.50321 0.04492 0 0.09156-0.0056 0.13471-0.02004 0.15636-0.04134 0.28769-0.15244 0.35958-0.31061 0.0665-0.14378 0.07764-0.31182 0.03451-0.47538-0.07908-0.29475-0.32532-0.50097-0.59673-0.50097zm-3.165 0.84831c-0.04675 0-0.09201 0.0048-0.13695 0.0156-0.31094 0.08447-0.48576 0.43772-0.39409 0.7882 0.08087 0.29657 0.32576 0.50097 0.59895 0.50097 0.04673 0 0.09199-0.0059 0.13693-0.0167 0.30915-0.08268 0.48714-0.43662 0.39187-0.78708-0.07909-0.29657-0.32532-0.50099-0.59671-0.50099zm3.4578 1.5709c-0.21927-0.01258-0.40532 0.15298-0.41971 0.37406-0.02156 0.37384-0.33866 0.73672-0.73588 0.84275-0.4026 0.10784-0.86272-0.04685-1.0676-0.35958-0.12224-0.18333-0.36774-0.23355-0.55108-0.11134-0.18154 0.12043-0.23176 0.36662-0.11134 0.54996 0.31274 0.46911 0.88582 0.74814 1.4718 0.74814 0.15457 0 0.31104-0.0199 0.46202-0.06125 0.72614-0.1941 1.2828-0.85018 1.3259-1.5619 0.01077-0.21927-0.15479-0.40644-0.37408-0.4208z" stroke-width=".57"/>
</svg>
