<?xml version="1.0" encoding="UTF-8"?>
<svg width="24" height="24" version="1.1" viewBox="0 0 24 24" xmlns="http://www.w3.org/2000/svg">
 <style>path{fill:#000}@media (prefers-color-scheme:dark){path{fill:#fff}}</style>
 <path d="m15.049 1.8535c-2.4624 0-4.4648 2.0044-4.4648 4.4668v2.5547h-8.9746v7.7148c0 1.907 1.5521 3.4609 3.4609 3.4609h5.2676c-0.5338-0.36126-0.9329-0.90571-1.1055-1.5527-0.21028-0.78366-0.059021-1.6012 0.38672-2.25 0.06472-1.3336 0.52235-2.6369 1.3203-3.7207 0.86632-1.179 2.1058-2.0545 3.5078-2.4805v-1.1719h-1.9375v-2.5547c0-1.4001 1.139-2.5391 2.5391-2.5391 1.4019 0 2.541 1.139 2.541 2.5391v2.584h1.9258v-2.584c0-2.4624-2.0026-4.4668-4.4668-4.4668zm1.3828 9.1797c-0.0773 0-0.15303 0.012045-0.22852 0.015625v-0.009766c-0.01978 0.001801-0.040767 0.002007-0.060547 0.003907l-0.001953-0.001953c-0.09527 0.0072-0.18584 0.01688-0.2793 0.03125-0.28758 0.03057-0.57767 0.075043-0.86523 0.15234-2.5253 0.67579-4.1717 2.9924-4.1016 5.4961-0.38642 0.35409-0.56566 0.90254-0.42188 1.4453 0.14559 0.53921 0.57921 0.92761 1.0879 1.0391 0.96516 1.7848 2.8432 2.9004 4.8652 2.9004 0.47451 0 0.95371-0.060193 1.4336-0.18945 2.545-0.68126 4.1985-3.0313 4.0996-5.5566 0.32897-0.35228 0.4747-0.86163 0.33984-1.3613-0.13465-0.50146-0.51454-0.86962-0.97656-1.0098-0.9562-1.8153-2.8507-2.9551-4.8906-2.9551zm0 1.2852c0.76746 0 1.5263 0.20858 2.1895 0.60938 0.66681 0.40081 1.2069 0.97321 1.5664 1.6562 0.15996 0.30195 0.43266 0.52809 0.75977 0.62695 0.02695 9e-3 0.091711 0.03827 0.11328 0.11914 0.02156 0.07908-0.021246 0.13631-0.041016 0.1543-0.23187 0.25162-0.35617 0.5843-0.3418 0.92578 0.03595 0.94541-0.25368 1.891-0.81445 2.6621-0.57695 0.79443-1.3851 1.3483-2.3359 1.6035-0.36307 0.09884-0.73127 0.14648-1.1016 0.14648-0.76207 0-1.5142-0.20599-2.1738-0.59961-0.65961-0.39181-1.1995-0.95473-1.5625-1.627-0.17614-0.32711-0.48849-0.56351-0.85156-0.64258-0.01797-0.0036-0.10179-0.029434-0.12695-0.12109-0.023351-0.09345 0.036248-0.15344 0.048828-0.16602 0.27498-0.24982 0.42876-0.61021 0.41797-0.98047-0.02695-0.94 0.26734-1.8766 0.82812-2.6387 0.40262-0.54819 0.92068-0.97111 1.5156-1.2695l0.001954 0.021484 0.005859 0.039063 0.003906 0.021484 0.001953 0.035156c9e-3 0.04675 0.016564 0.091779 0.027344 0.13672 0.03953 0.15457 0.10076 0.2988 0.18164 0.43359 0.08447 0.12941 0.18574 0.25075 0.30078 0.34961 0.11502 0.10065 0.24425 0.17911 0.38086 0.24024 0.13839 0.05752 0.28394 0.095005 0.42774 0.10937 0.0611 0.001801 0.12038 0.005707 0.17969 0.003907l0.12305-0.72461h-0.007812l-0.009766-0.001953v-0.003906h-0.00586l-0.027343-0.005859c-0.03593-0.0072-0.06906-0.02453-0.09961-0.03711-0.0647-0.02876-0.12138-0.060242-0.16992-0.10156-0.050331-0.04315-0.09493-0.090152-0.13086-0.13867-0.03417-0.05392-0.060155-0.10819-0.078125-0.16211-0.01978-0.05392-0.029593-0.11179-0.033203-0.16211 0.0018-0.0072 0.003906-0.016247 0.003906-0.023437l-0.003906-0.003907 0.003906-0.019531v-0.039062-0.025391l0.001953-0.005859v-0.007813c0.0036-0.01437 0.005913-0.026626 0.007813-0.041016 0.01437-0.04851 0.031337-0.099591 0.054687-0.14453 0.02697-0.04313 0.055531-0.083354 0.087891-0.12109 0.01079-0.0108 0.022413-0.018201 0.033203-0.025391 0.21567-0.03415 0.43096-0.054688 0.64844-0.054688zm1.4805 3.127c-0.04673 0-0.093731 0.006759-0.13867 0.017579-0.30915 0.08268-0.4859 0.4347-0.39063 0.78516 0.077301 0.29656 0.32249 0.50391 0.5957 0.50391 0.04492 0 0.091615-0.005091 0.13476-0.019531 0.15636-0.04134 0.28748-0.15238 0.35938-0.31055 0.0665-0.14378 0.078287-0.313 0.035156-0.47656-0.07908-0.29475-0.32429-0.5-0.5957-0.5zm-3.166 0.84766c-0.04675 0-0.091779 0.004825-0.13672 0.015625-0.31094 0.08447-0.4862 0.43858-0.39453 0.78906 0.08087 0.29657 0.32642 0.5 0.59961 0.5 0.04673 0 0.091779-0.006778 0.13672-0.017578 0.30915-0.08268 0.48785-0.43665 0.39258-0.78711-0.07909-0.29657-0.32627-0.5-0.59766-0.5zm3.457 1.5703c-0.21927-0.01258-0.40358 0.15392-0.41797 0.375-0.02156 0.37384-0.33911 0.73577-0.73633 0.8418-0.4026 0.10784-0.86348-0.046645-1.0684-0.35938-0.12224-0.18333-0.36744-0.23354-0.55078-0.11133-0.18154 0.12043-0.23175 0.36744-0.11133 0.55078 0.31274 0.46911 0.88668 0.74805 1.4727 0.74805 0.15457 0 0.30996-0.02115 0.46094-0.0625 0.72614-0.1941 1.2831-0.84883 1.3262-1.5605 0.01077-0.21927-0.15571-0.40752-0.375-0.42188z"/>
</svg>
