<svg width="24" height="24" version="1.1" viewBox="0 0 24 24" xmlns="http://www.w3.org/2000/svg">
 <style>path{fill:#000}@media (prefers-color-scheme:dark){path{fill:#fff}}</style>
 <path d="m9.4457 2.8289c-0.12129-0.80551-0.38976-1.5331-0.93545-1.8276-0.34646 0.01774-0.70156 0.06076-1.0827 0.15588-1.6024 0.41575-2.1307 1.7409-2.1654 2.2953-0.02595 0.38112-0.01774 0.65828-0.02595 0.90079 0 0.03459-0.00887 0.17317-0.00887 0.37245h2.4512c0.15587-0.89212 0.58899-1.6716 1.7669-1.8969m-3.5944 7.6828c0-0.3205-0.25982-0.58037-0.58032-0.58037-0.32049 0-0.58032 0.25987-0.58032 0.58037 0 0.3118 0.25983 0.5803 0.58032 0.5803 0.3205 0 0.58032-0.2685 0.58032-0.5803m-0.58032-3.0056c0.3205 0 0.58032-0.25987 0.58032-0.58032 0-0.32049-0.25982-0.58032-0.58032-0.58032-0.32049 0-0.58032 0.25983-0.58032 0.58032 0 0.32045 0.25983 0.58032 0.58032 0.58032m1.663 3.4992c0.27719 0 0.50236-0.2164 0.50236-0.4937 0-0.2772-0.22517-0.5024-0.50236-0.5024-0.27714 0-0.50236 0.2252-0.50236 0.5024 0 0.2771 0.22522 0.4937 0.50236 0.4937m0-3.5772c0.27719 0 0.50236-0.22521 0.50236-0.50236 0-0.27719-0.22517-0.50236-0.50236-0.50236-0.27714 0-0.50236 0.22517-0.50236 0.50236 0 0.27715 0.22522 0.50236 0.50236 0.50236m-3.5598 2.3992c-0.37245 0-0.68427 0.30319-0.68427 0.68429 0 0.3724 0.31182 0.6756 0.68427 0.6756 0.38109 0 0.68424-0.3032 0.68424-0.6756 0-0.3811-0.30315-0.68429-0.68424-0.68429m0-3.5858c-0.37245 0-0.68427 0.30313-0.68427 0.68424 0 0.37245 0.31182 0.6756 0.68427 0.6756 0.38109 0 0.68424-0.30315 0.68424-0.6756 0-0.38111-0.30315-0.68424-0.68424-0.68424m13.815 10.983c-0.3205 0-0.5803 0.2598-0.5803 0.5803s0.2598 0.5803 0.5803 0.5803 0.5803-0.2598 0.5803-0.5803-0.2598-0.5803-0.5803-0.5803m-1.585-0.2512c-0.2945 0-0.537 0.2339-0.537 0.537 0 0.2945 0.2425 0.5457 0.537 0.5457 0.3031 0 0.5457-0.2512 0.5457-0.5457 0-0.3031-0.2426-0.537-0.5457-0.537m-1.5418-0.1559c-0.2771 0-0.4937 0.2252-0.4937 0.5024 0 0.2771 0.2167 0.5023 0.4937 0.5023 0.2772 0 0.5024-0.2252 0.5024-0.5023 0-0.2772-0.2252-0.5024-0.5024-0.5024m4.7985 0.8055c-0.3378 0-0.615 0.2772-0.615 0.6236 0 0.3465 0.2772 0.6236 0.615 0.6236 0.3464 0 0.6236-0.2771 0.6236-0.6236 0-0.3464-0.2772-0.6236-0.6236-0.6236m1.7756 0.6669c-0.3811 0-0.6843 0.3032-0.6843 0.6843 0 0.3724 0.3032 0.6756 0.6843 0.6756 0.3724 0 0.6756-0.3032 0.6756-0.6756 0-0.3811-0.3032-0.6843-0.6756-0.6843m-3.4473-5.526c-0.3205 0-0.5803 0.2599-0.5803 0.5803 0 0.3205 0.2598 0.5804 0.5803 0.5804s0.5803-0.2599 0.5803-0.5804c0-0.3204-0.2598-0.5803-0.5803-0.5803m-1.585 0.3378c-0.2945 0-0.537 0.2339-0.537 0.537 0 0.3032 0.2425 0.537 0.537 0.537 0.3031 0 0.5457-0.2338 0.5457-0.537 0-0.3031-0.2426-0.537-0.5457-0.537m-1.5418 0.2252c-0.2685 0-0.4937 0.2252-0.4937 0.5024 0 0.2771 0.2252 0.5024 0.4937 0.5024 0.2772 0 0.5024-0.2253 0.5024-0.5024 0-0.2772-0.2252-0.5024-0.5024-0.5024m4.7985-1.048c-0.3378 0-0.615 0.2771-0.615 0.6236s0.2772 0.6236 0.615 0.6236c0.3464 0 0.6236-0.2771 0.6236-0.6236s-0.2772-0.6236-0.6236-0.6236m1.7756 0.5803c0.3724 0 0.6756-0.3031 0.6756-0.6842 0-0.3725-0.3032-0.6756-0.6756-0.6756-0.3811 0-0.6843 0.3031-0.6843 0.6756 0 0.3811 0.3032 0.6842 0.6843 0.6842m-3.4473 2.1394c-0.3205 0-0.5803 0.2512-0.5803 0.5803 0 0.3205 0.2598 0.5803 0.5803 0.5803s0.5803-0.2598 0.5803-0.5803c0-0.3291-0.2598-0.5803-0.5803-0.5803m-1.585 0.0346c-0.2945 0-0.537 0.2425-0.537 0.5456 0 0.2945 0.2425 0.5371 0.537 0.5371 0.3031 0 0.5457-0.2426 0.5457-0.5371 0-0.3031-0.2426-0.5456-0.5457-0.5456m-1.5418 0.0432c-0.2771 0-0.4937 0.2252-0.4937 0.5024 0 0.2685 0.2167 0.4937 0.4937 0.4937 0.2772 0 0.5024-0.2252 0.5024-0.4937 0-0.2772-0.2252-0.5024-0.5024-0.5024m4.7985-0.1213c-0.3378 0-0.615 0.2772-0.615 0.6237 0 0.3378 0.2772 0.6149 0.615 0.6149 0.3464 0 0.6236-0.2771 0.6236-0.6149 0-0.3465-0.2772-0.6237-0.6236-0.6237m1.7756-0.0605c-0.3811 0-0.6843 0.3031-0.6843 0.6756 0 0.3811 0.3032 0.6842 0.6843 0.6842 0.3724 0 0.6756-0.3031 0.6756-0.6842 0-0.3725-0.3032-0.6756-0.6756-0.6756m-15.495-0.3032c0.29448 0.0433 1.4205 0.1991 2.4685 0.1386v-2.0528h-2.4512c-0.00887 0.641-0.00887 1.2819-0.01774 1.9142m3.4304 1.4725c1.2559-0.1472 2.3646-0.8661 2.3906-1.5157 0.0177-0.5024 0.0089-8.3323 0.0089-10.42 0-0.20776 0-0.34646-0.0089-0.60631-0.0178-0.93542-0.1559-1.7669-0.6236-2.3905 0.0346 0.00887 0.0953 0.01774 0.1126 0.02594 0.5976 0.12129 1.611 0.49369 1.8016 1.7323 0.1645 1.1433 0.0867 2.2693 0.1299 3.6724 0.0346 1.3945 0.2598 11.26 0.2598 11.624 0 0.2945 0.0692 3.3174 0.0954 4.8158h-7.7174c0.00887-0.9961 0.03459-3.8457 0.06918-7.0331 0.39843 0.0608 1.152 0.1472 1.9662 0.1472 0 0 0.79687 0.026 1.5158-0.0519"/>
</svg>
