<svg width="24" height="24" version="1.1" viewBox="0 0 24 24" xmlns="http://www.w3.org/2000/svg">
 <style>path{fill:#000}@media (prefers-color-scheme:dark){path{fill:#fff}}</style>
 <path d="m14.49 16.061c1.2473-0.1472 2.3646-0.8661 2.3819-1.5157 0.0173-0.5024 0.0173-8.3323 0.0087-10.42 0-0.21663 0-0.34645-0.0087-0.6063-0.0173-0.93542-0.1559-1.7669-0.6149-2.3905 0.0346 0.00887 0.0866 0.01774 0.1125 0.01774 0.5977 0.12993 1.6111 0.50236 1.793 1.741 0.1645 1.1433 0.0952 2.2693 0.1299 3.6638 0.0346 1.4031 0.2598 11.268 0.2598 11.632 0 0.2945 0.0693 3.3173 0.0953 4.8158h-7.7173c0.0086-0.9961 0.0433-3.8457 0.0779-7.0331 0.3985 0.0519 1.1433 0.1386 1.9662 0.1386 0 0 0.7968 0.0345 1.5157-0.0433m0.1559-5.5611c0-0.1991-0.1645-0.3638-0.3638-0.3638h-6.496v-0.73617c0-0.06918-0.03466-0.12994-0.08661-0.15588-0.06062-0.03459-0.12991-0.03459-0.18188 0l-2.1654 1.2386 2.1567 1.2559c0.05197 0.026 0.12126 0.026 0.18188 0 0.05198-0.0346 0.08661-0.0953 0.08661-0.1558v-0.7189h6.5047c0.1993 0 0.3638-0.1646 0.3638-0.3638m-6.9551-2.356c0.05197-0.02594 0.0866-0.08669 0.0866-0.14723l0.00865-0.71887h6.496c0.1992 0 0.3638-0.16453 0.3638-0.3638 0-0.19911-0.1646-0.36377-0.3638-0.36377h-6.496v-0.74489c0-0.06053-0.03466-0.12129-0.08661-0.15588-0.06062-0.02594-0.12991-0.02594-0.18188 0l-2.1654 1.2472 2.1567 1.2472c0.05197 0.03459 0.12126 0.03459 0.18188 0m5.8118 6.5912v-2.0614h-2.4598c-0.0087 0.641-0.0173 1.2819-0.0173 1.9229 0.2945 0.0432 1.4205 0.1991 2.4771 0.1386m-2.4858-10.013h2.5205c0.1645-0.89211 0.6063-1.6716 1.8275-1.8968-0.1299-0.80551-0.4071-1.533-0.9701-1.8276-0.3551 0.017738-0.7188 0.060758-1.1086 0.15588-1.6457 0.41575-2.1913 1.7409-2.2347 2.2953 0 0-0.0692 0.49371-0.0346 1.2732"/>
</svg>
