<?xml version="1.0" encoding="UTF-8"?>
<svg width="24" height="24" version="1.1" viewBox="0 0 24 24" xmlns="http://www.w3.org/2000/svg">
 <style>path{fill:#000}@media (prefers-color-scheme:dark){path{fill:#fff}}</style>
 <path d="m12 2.3668c-5.321 0-9.6332 4.3122-9.6332 9.6332 0 5.3193 4.3122 9.6332 9.6332 9.6332s9.6332-4.3139 9.6332-9.6332c0-5.321-4.3122-9.6332-9.6332-9.6332zm0 1.1556c2.2646 0 4.3932 0.88187 5.9939 2.4826 1.6025 1.6007 2.4826 3.7304 2.4826 5.995 0 2.2629-0.88016 4.3932-2.4826 5.9939-1.6007 1.6007-3.7293 2.4826-5.9939 2.4826s-4.3926-0.88187-5.995-2.4826c-1.6007-1.6007-2.4826-3.731-2.4826-5.9939 0-2.2646 0.88187-4.3943 2.4826-5.995 1.6025-1.6007 3.7304-2.4826 5.995-2.4826zm3.2341 2.4158c-0.90681-0.02544-1.9593 0.32384-2.8645 1.2291-0.47613 0.47613-0.81302 1.3792-0.92736 2.2922-0.17748 0.03925-0.34999 0.09584-0.51211 0.16922-0.8584-1.2799-2.0367-2.7241-2.791-3.4801-0.11263-0.11263-0.55654-0.08864-1.5463 0.90287-0.89082 0.89082-1.0342 2.968 0.57334 4.5756 0.47784 0.47784 1.3804 0.81243 2.2934 0.92848 0.03755 0.17748 0.09584 0.34776 0.16922 0.50988-1.2799 0.8584-2.7258 2.0383-3.4801 2.7943-0.11434 0.11263-0.08975 0.55373 0.90176 1.5452 0.89082 0.89082 2.9674 1.0342 4.5767-0.57334 0.47613-0.47784 0.8102-1.3781 0.92625-2.2911 0.17919-0.03755 0.34999-0.09584 0.51211-0.16922 0.8584 1.2799 2.0361 2.7236 2.7921 3.4779 0.11263 0.11263 0.55484 0.08916 1.5463-0.90064 0.89082-0.89082 1.0342-2.9702-0.57334-4.5778-0.47784-0.47613-1.377-0.81191-2.29-0.92625-0.03755-0.17919-0.09584-0.35221-0.16922-0.51434 1.2799-0.8584 2.7214-2.0356 3.4757-2.7899 0.11434-0.11434 0.09086-0.55655-0.90064-1.5463-0.38973-0.38973-1.0069-0.63593-1.7122-0.65572zm-3.233 5.1935c0.47784 0 0.86613 0.38941 0.86613 0.86725 0 0.47954-0.3883 0.86725-0.86613 0.86725-0.47954 0-0.86725-0.3877-0.86725-0.86725 0-0.47784 0.3877-0.86725 0.86725-0.86725z" stroke-width=".57"/>
</svg>
