<?xml version="1.0" encoding="UTF-8"?>
<svg width="24" height="24" version="1.1" viewBox="0 0 24 24" xmlns="http://www.w3.org/2000/svg">
 <style>path{fill:#000}@media (prefers-color-scheme:dark){path{fill:#fff}}</style>
 <path d="m11.123 1.5107c-1.724 0-3.1272 1.4059-3.1272 3.1317v9.2937c0 0.10448 0.01368 0.20681 0.02449 0.30949l1.3315-1.4462v-8.157c0-0.97819 0.79664-1.7735 1.7712-1.7735h7.4122c0.97819 0 1.7735 0.79527 1.7735 1.7735v9.2937c0 0.97459-0.79527 1.769-1.7735 1.769h-6.6452l-1.2524 1.3582h7.8976c1.7258 0 3.1317-1.4032 3.1317-3.1272v-9.2937c0-1.7258-1.4059-3.1317-3.1317-3.1317zm-5.6599 5.4261c-1.724 0-3.1294 1.4048-3.1294 3.1305v9.2937c0 1.724 1.4054 3.1283 3.1294 3.1283h7.4111c1.7276 0 3.1305-1.4043 3.1305-3.1283v-1.1845h-1.356v1.1845c0 0.97639-0.79458 1.7712-1.7746 1.7712h-7.4111c-0.97639 0-1.769-0.79484-1.769-1.7712v-9.2937c0-0.97639 0.79261-1.7701 1.769-1.7701h1.4183v-1.3604zm6.791 0c-0.47919 0-0.87059 0.3914-0.87059 0.87059 0 0.47739 0.3914 0.86613 0.87059 0.86613h2.3234l-6.3969 6.948c-0.15312 0.17294-0.23108 0.39884-0.21486 0.63123 0.01261 0.23059 0.11763 0.44094 0.29057 0.59226 0.15853 0.14232 0.36368 0.2182 0.57445 0.2182 0.2486 0 0.48442-0.10475 0.65016-0.29391l6.201-6.7264v2.0629c0 0.47919 0.39097 0.86836 0.86836 0.86836 0.47919 0 0.86836-0.38917 0.86836-0.86836v-5.169zm-6.5105 2.349c-0.51522 0-0.93738 0.42259-0.93738 0.93961 0 0.51342 0.42217 0.93627 0.93738 0.93627 0.51702 0 0.93627-0.42285 0.93627-0.93627 0-0.51702-0.41925-0.93961-0.93627-0.93961zm0 3.007c-0.51522 0-0.93738 0.42148-0.93738 0.9385 0 0.51342 0.42217 0.93738 0.93738 0.93738 0.51702 0 0.93627-0.42397 0.93627-0.93738 0-0.51702-0.41925-0.9385-0.93627-0.9385zm0 3.007c-0.51522 0-0.93738 0.41925-0.93738 0.93627 0 0.51522 0.42217 0.9385 0.93738 0.9385 0.51702 0 0.93627-0.42328 0.93627-0.9385 0-0.51702-0.41925-0.93627-0.93627-0.93627zm0 3.0047c-0.51522 0-0.93738 0.42148-0.93738 0.9385 0 0.51522 0.42217 0.9385 0.93738 0.9385 0.51702 0 0.93627-0.42328 0.93627-0.9385 0-0.51702-0.41925-0.9385-0.93627-0.9385zm3.4267 0c-0.51522 0-0.93627 0.41968-0.93627 0.9385 0 0.51522 0.42105 0.93627 0.93627 0.93627 0.51702 0 0.93738-0.42105 0.93738-0.93627 0-0.51882-0.42036-0.9385-0.93738-0.9385zm3.4267 0c-0.51522 0-0.93627 0.41968-0.93627 0.9385 0 0.51522 0.42105 0.93627 0.93627 0.93627 0.51702 0 0.93738-0.42105 0.93738-0.93627 0-0.51882-0.42036-0.9385-0.93738-0.9385z" stroke-width=".57"/>
</svg>
