<svg width="24" height="24" version="1.1" viewBox="0 0 24 24" xmlns="http://www.w3.org/2000/svg">
 <style>path{fill:#000}@media (prefers-color-scheme:dark){path{fill:#fff}}</style>
 <path d="m17.545 15.616 0.1646-1.6682c0.3492 0.1557 0.7017 0.2725 1.0665 0.3514 0.3626 0.0812 0.6851 0.1202 0.9687 0.1202 0.3692 0 0.6595-0.0645 0.8719-0.1924 0.2091-0.1257 0.3158-0.3137 0.3158-0.5605 0-0.1368-0.0445-0.2603-0.1323-0.3648-0.0868-0.1068-0.228-0.2091-0.426-0.3114-0.1946-0.099-0.4693-0.2158-0.8263-0.3481-0.6528-0.2391-1.1555-0.5338-1.5013-0.8853-0.3504-0.3525-0.525-0.8007-0.525-1.3445 0-0.50158 0.1391-0.92974 0.4115-1.2845 0.2714-0.35588 0.6406-0.62279 1.1099-0.80184 0.4671-0.1746 0.9943-0.26468 1.5848-0.26468 0.8107 0 1.4936 0.08341 2.0441 0.25023l-0.1201 1.5781c-0.5861-0.22576-1.1666-0.33697-1.7405-0.33697-0.3559 0-0.6439 0.05783-0.8641 0.1746-0.2236 0.11567-0.3348 0.28248-0.3348 0.49938 0 0.1301 0.0378 0.2391 0.1046 0.3269 0.07 0.0857 0.1935 0.1746 0.3692 0.2669 0.179 0.0912 0.4482 0.2047 0.813 0.3415 0.4693 0.1812 0.8596 0.377 1.1643 0.5838 0.3048 0.2069 0.5372 0.4527 0.6973 0.734 0.1602 0.2836 0.2391 0.6184 0.2391 1.0009 0 0.5094-0.1278 0.9487-0.3814 1.3179-0.2525 0.3714-0.6172 0.6528-1.0888 0.8497-0.4726 0.1957-1.0342 0.2924-1.6871 0.2924-0.8129 0-1.5803-0.1089-2.2976-0.3247m-3.7874-2.8637-0.3159-1.0221c-0.3281-1.0898-0.5271-1.7794-0.5972-2.0696h-0.0233c-0.0445 0.19462-0.1302 0.50381-0.2603 0.92641-0.1323 0.4204-0.2558 0.8018-0.3714 1.1432l-0.3481 1.0221zm-2.1353-4.5486h2.4489l2.9415 7.5969h-2.2209l-0.5671-1.6215h-2.8504l-0.5994 1.6215h-2.0475zm-8.5324 7.2971c-0.68952-0.2925-1.21-0.7273-1.5614-1.299-0.35254-0.5761-0.52937-1.2756-0.52937-2.1019 0-0.8407 0.18572-1.5658 0.55495-2.172 0.36922-0.60721 0.8997-1.0687 1.5848-1.3902 0.68729-0.31806 1.4936-0.47821 2.4233-0.47821 0.4037 0 0.78516 0.02558 1.1422 0.07229 0.35365 0.04671 0.74623 0.13679 1.1733 0.26691l-0.16237 1.6003c-0.32474-0.15236-0.65726-0.26246-0.99423-0.32696-0.33698-0.06562-0.6973-0.10009-1.0732-0.10009-0.50935 0-0.95531 0.10454-1.3379 0.30694-0.3859 0.20129-0.68062 0.48709-0.88747 0.85519-0.20685 0.367-0.30917 0.7919-0.30917 1.2767 0 0.4949 0.08563 0.9231 0.26468 1.2857 0.17683 0.3647 0.43707 0.6428 0.77849 0.8385 0.34142 0.1946 0.74734 0.2947 1.22 0.2947 0.25913 0 0.5227-0.0233 0.78516-0.0645v-1.5147h-1.1989v-1.4157h3.0238v4.1915c-0.34809 0.0946-0.73622 0.1713-1.1633 0.228-0.42705 0.0579-0.82741 0.0879-1.1966 0.0879-1.0009 0-1.8494-0.1468-2.5367-0.4415"/>
</svg>
