<svg width="24" height="24" version="1.1" viewBox="0 0 24 24" xmlns="http://www.w3.org/2000/svg">
 <style>path{fill:#000}@media (prefers-color-scheme:dark){path{fill:#fff}}</style>
 <path d="m14.316 16.061c1.2485-0.1441 2.3661-0.8604 2.3883-1.5124 0.0155-0.5033 0.0111-8.3312 0.0088-10.422-0.0022-0.21066 0-0.34815-0.0088-0.6076-0.02-0.93801-0.1597-1.7652-0.6231-2.3838 0.0377 0.00443 0.0931 0.0133 0.1153 0.01774 0.5965 0.12418 1.6099 0.49229 1.7917 1.7341 0.1708 1.1442 0.0976 2.2685 0.1331 3.6678s0.2617 11.263 0.2617 11.631c0 0.2949 0.0709 3.3174 0.0931 4.8165h-7.717c0.0111-0.9913 0.0421-3.8452 0.0754-7.0318 0.3991 0.0554 1.1487 0.1419 1.9669 0.1419 0 0 0.7961 0.031 1.5146-0.051m-1.6115-3.7341c-0.3415-0.0244-0.683 0.0244-1.0045 0.1397-0.3216 0.122-0.6165 0.3082-0.8649 0.5477v1.6011c0.8715 0.1375 1.7541 0.1796 2.6323 0.1264v-1.9692c-0.1043-0.1907-0.3282-0.4036-0.7629-0.4457m-4.3412-4.1135c-0.15966 0-0.3171-0.01109-0.47677-0.03326-1.57-0.21732-2.2929-1.7252-2.3218-1.7896-0.09757-0.20845-0.00887-0.45681 0.19958-0.55438 0.21066-0.09979 0.45681-0.00887 0.5566 0.19957 0.00665 0.00887 0.56547 1.162 1.6809 1.3172 0.70517 0.102 1.386-0.08427 2.0157-0.54108 0.8715-0.632 1.4813-0.95132 2.3839-0.95132 1.213 0 2.0778 0.5056 2.5723 1.5035 0.1042 0.20623 0.0178 0.45682-0.1885 0.56104-0.2062 0.10644-0.4568 0.01774-0.5588-0.18849-0.3526-0.70961-0.9314-1.04-1.825-1.04-0.683 0-1.1354 0.24393-1.8938 0.79166-0.66081 0.47898-1.3926 0.72513-2.1443 0.72513m0.01442 3.5449c-0.16188 0-0.32598-0.0111-0.4923-0.0332-1.5678-0.2196-2.2907-1.7275-2.3218-1.7918-0.09535-0.20844-0.00665-0.45459 0.19958-0.55216 0.21066-0.10201 0.45903-0.01109 0.55882 0.19736 0.00443 0.01109 0.56547 1.162 1.6787 1.3172 0.70517 0.0976 1.386-0.082 2.0179-0.5389 0.8715-0.63195 1.4814-0.9535 2.3817-0.9535 1.213 0 2.08 0.5056 2.5745 1.5057 0.102 0.2062 0.0178 0.4568-0.1885 0.5588-0.2062 0.1065-0.459 0.02-0.561-0.1885-0.3526-0.7096-0.9314-1.04-1.825-1.04-0.6808 0-1.1332 0.2462-1.8916 0.7939-0.66745 0.4834-1.3815 0.7251-2.131 0.7251m5.8438-10.758c-0.4302-0.00222-0.6918 0.04878-1.1087 0.15301-0.5588 0.11309-1.0733 0.39028-1.468 0.80053-0.4147 0.42798-0.6476 0.84266-0.7717 1.4968-0.0577 0.47455-0.0444 0.99345-0.0444 0.99345 0.734-0.39915 1.59-0.3792 2.222-0.20179 0.2461 0.07317 0.2772 0.07983 0.4102 0.16188 0.1131-0.44351 0.2218-0.59652 0.4967-0.95576 0.2883-0.31267 0.7917-0.53442 1.2086-0.61647-0.1863-1.3084-0.6896-1.692-0.9447-1.8317"/>
</svg>
