<?xml version="1.0" encoding="UTF-8"?>
<svg width="24" height="24" version="1.1" viewBox="0 0 24 24" xmlns="http://www.w3.org/2000/svg">
 <style>path{fill:#000}@media (prefers-color-scheme:dark){path{fill:#fff}}</style>
 <path d="m8.2712 1.4917c-0.19921 0-0.3979 0.14833-0.55056 0.44808l-4.8538 9.5514c-0.30347 0.59949-0.75631 1.6024-1.0058 2.2261 0 0-0.36227 0.91298-0.36227 2.0747 0 3.7105 3.0082 6.7164 6.7188 6.7164 3.7105 0 6.7176-3.0058 6.7176-6.7164 0-1.0426-0.25145-1.7566-0.25145-1.7566-0.22528-0.63487-0.6548-1.645-0.95454-2.2463l-4.9086-9.8457c-0.1508-0.30161-0.35016-0.45165-0.54937-0.45165zm10.001 2.5502c-0.1266 0-0.25302 0.09491-0.34797 0.28481l-3.0841 6.0657c-0.05771 0.11171-0.12298 0.24685-0.19186 0.39207l0.21808 0.43616c0.15267 0.30533 0.32975 0.6966 0.50289 1.0987 0.0093-0.02792 0.01534-0.04685 0.01907-0.05243 0.1415-0.36118 0.4113-0.95504 0.58631-1.3013l2.288-4.5034 2.3369 4.6845c0.16384 0.32954 0.4151 0.92085 0.53984 1.2727 0.01303 0.03538 0.09057 0.3128 0.09057 0.70191 0 1.6514-1.3416 2.9935-2.9911 2.9935-0.79126 0-1.5123-0.30648-2.0485-0.80916 0.01117 0.15453 0.01668 0.3156 0.01668 0.48502 0 0.35188-0.02392 0.70068-0.06674 1.0451 0.61997 0.35002 1.3352 0.55056 2.0986 0.55056 2.3552 0 4.2627-1.9099 4.2627-4.2651 0-0.66279-0.15969-1.1154-0.15969-1.1154-0.14336-0.40214-0.41548-1.0436-0.60538-1.4253l-3.1163-6.2528c-0.09495-0.1899-0.22137-0.28601-0.34797-0.28601zm-10.014 1.0487 3.7646 7.5494c0.26437 0.53061 0.65575 1.448 0.85683 2.014 0.01675 0.05399 0.14896 0.50692 0.14896 1.1381 0 2.653-2.1578 4.8109-4.8109 4.8109-2.6549 0-4.812-2.1578-4.812-4.8109 0-0.7261 0.21376-1.3278 0.23238-1.38 0.229-0.57343 0.65092-1.5114 0.92833-2.0569zm-0.68641 7.2026v1.8996h-1.9007v1.3013h1.9007v1.8996h1.3001v-1.8996h1.9007v-1.3013h-1.9007v-1.8996zm9.0854 0.02741v1.3001h3.1616v-1.3001z" stroke-width=".57"/>
</svg>
