<svg width="24" height="24" version="1.1" viewBox="0 0 24 24" xmlns="http://www.w3.org/2000/svg">
 <style>path{fill:#000}@media (prefers-color-scheme:dark){path{fill:#fff}}</style>
 <path d="m15.86 11.543c0 2.1154-1.7232 3.8402-3.8409 3.8402-2.1146 0-3.8401-1.7248-3.8401-3.8402 0-2.1153 1.7255-3.8401 3.8401-3.8401 2.1177 0 3.8409 1.7248 3.8409 3.8401m-4.819-7.0328h1.9586v1.5767h-1.9586zm2.7131-1.5098h-3.4676c-0.41189 0-0.75526 0.33472-0.75526 0.75448v3.0471l-0.07796 0.03938c-1.7232 0.93956-2.7911 2.7423-2.7911 4.6923 0 2.9494 2.3989 5.3483 5.3482 5.3483 2.9486 0 5.3483-2.3989 5.3483-5.3483 0-1.95-1.0679-3.7417-2.773-4.6836l-0.0779-0.03858v-3.0565c0-0.4103-0.3324-0.75448-0.7537-0.75448m-7.1022 4.4182s-0.02992-0.02913-0.04883-0.03859l-1.6861-1.6846c-0.35282-0.35283-0.35282-0.92066 0-1.2735 0.17641-0.17642 0.40322-0.26541 0.63712-0.26541 0.23548 0 0.46072 0.08899 0.63713 0.26541l1.6838 1.6838s0.02994 0.02992 0.03938 0.03938c-0.47883 0.36228-0.90095 0.79464-1.2624 1.2735m10.736-0.05829s-0.0299 0.02049-0.0385 0.03938c-0.3623-0.47962-0.7931-0.90096-1.2648-1.2632 0 0 0.0204-0.02992 0.0409-0.03859l1.6838-1.6862c0.1764-0.1772 0.4016-0.26383 0.6371-0.26383 0.2339 0 0.4607 0.08663 0.6371 0.26383 0.3513 0.35283 0.3513 0.92066 0 1.2735l-1.6861 1.6846zm-10.736 8.2387s-0.02992 0.0291-0.04883 0.0386l-1.6861 1.6846c-0.35282 0.3528-0.35282 0.9206 0 1.2734 0.17641 0.1765 0.40322 0.2662 0.63712 0.2662 0.23548 0 0.46072-0.0897 0.63713-0.2662l1.6838-1.6838s0.02994-0.0299 0.03938-0.0393c-0.47883-0.3623-0.90095-0.7947-1.2624-1.2735m5.3578 2.6548c-0.3135 0-0.6159-0.0204-0.9112-0.0598v2.4312c0 0.4993 0.4024 0.9002 0.9025 0.9002 0.4993 0 0.9002-0.4009 0.9002-0.9002v-2.4312c-0.2835 0.0394-0.5867 0.0598-0.8821 0.0598zm5.3781-2.606s-0.0299-0.0205-0.0385-0.0394c-0.3623 0.4797-0.7931 0.901-1.2648 1.2633 0 0 0.0204 0.0299 0.0409 0.0386l1.6838 1.6861c0.1764 0.1764 0.4016 0.2639 0.6371 0.2639 0.2339 0 0.4607-0.0875 0.6371-0.2639 0.3513-0.3528 0.3513-0.9206 0-1.2735l-1.6861-1.6845zm3.7126-5.0057h-2.4383c0.0394 0.293 0.0575 0.5867 0.0575 0.9002 0 0.3142-0.0181 0.6072-0.0575 0.8915h2.4383c0.4993 0 0.9009-0.4009 0.9009-0.9002 0-0.5001-0.4016-0.901-0.9009-0.901zm-15.752 1.7728c-0.03859-0.2843-0.05907-0.5773-0.05907-0.8711 0-0.3134 0.02048-0.6182 0.05907-0.9206h-2.4493c-0.4993 0-0.90096 0.4009-0.90096 0.9002 0 0.5001 0.40166 0.9009 0.90096 0.9009h2.4493z"/>
</svg>
