<?xml version="1.0" encoding="UTF-8"?>
<svg width="24" height="24" version="1.1" viewBox="0 0 24 24" xmlns="http://www.w3.org/2000/svg">
 <style>path{fill:#000}@media (prefers-color-scheme:dark){path{fill:#fff}}</style>
 <path d="m11.979 1.4915c-0.34813 0-0.6315 0.28338-0.6315 0.6315v1.8522c0 0.34813 0.28338 0.62944 0.6315 0.62944s0.62944-0.28131 0.62944-0.62944v-1.8522c0-0.34813-0.28131-0.6315-0.62944-0.6315zm-4.9241 1.3177c-0.08142 0.01012-0.16296 0.03674-0.23836 0.08048-0.30159 0.17313-0.40324 0.56002-0.23011 0.86161l0.92455 1.6035c0.17499 0.30345 0.56105 0.4053 0.86264 0.23217 0.30159-0.175 0.4051-0.56002 0.23011-0.86161l-0.92455-1.6046c-0.12985-0.22619-0.38003-0.34199-0.62428-0.31162zm9.8894 0c-0.24452-0.03037-0.4934 0.08543-0.62325 0.31162l-0.92558 1.6046c-0.175 0.30159-0.07045 0.68661 0.23114 0.86161 0.30159 0.17313 0.68661 0.07128 0.86161-0.23217l0.92558-1.6035c0.17499-0.30159 0.07045-0.68848-0.23114-0.86161-0.07586-0.04375-0.15686-0.07036-0.23836-0.08048zm-4.9426 3.0605c-2.7627 0-5.0097 2.2217-5.0097 4.9509 0 0.96992 0.29666 1.9172 0.88121 2.8201 0.10984 0.16755 0.24154 0.32548 0.38489 0.49117 0.14893 0.17499 0.49736 0.58677 0.49736 0.74501v1.5395c0 0.75024 0.67985 1.6231 1.553 1.6231h3.434c0.78934 0 1.3631-0.683 1.3631-1.6231v-1.5395c0-0.15265 0.31676-0.49359 0.50665-0.69651 0.175-0.18803 0.35504-0.38336 0.49839-0.59745 0.58269-0.86566 0.8905-1.8203 0.8905-2.7623 0-2.7292-2.2423-4.9509-4.9994-4.9509zm-8.4737 0.54689c-0.24382-0.03037-0.49406 0.0844-0.62531 0.31059-0.175 0.30159-0.07045 0.68951 0.23114 0.86264l1.6025 0.92455c0.30345 0.17499 0.68951 0.07045 0.86264-0.23114 0.175-0.30159 0.07045-0.68661-0.23114-0.86161l-1.6025-0.92558c-0.0754-0.04375-0.15606-0.06933-0.23733-0.07945zm16.943 0c-0.08127 0.01012-0.16193 0.03571-0.23733 0.07945l-1.6025 0.92558c-0.30159 0.17499-0.4053 0.56002-0.23217 0.86161 0.17499 0.30159 0.56208 0.40613 0.86367 0.23114l1.6025-0.92455c0.30158-0.17313 0.40613-0.56105 0.23114-0.86264-0.13125-0.22619-0.38149-0.34096-0.62531-0.31059zm-8.4696 1.3445c1.7127 0 3.1059 1.3747 3.1059 3.0595 0 0.71301-0.30979 1.3213-0.56856 1.7067-0.05957 0.09122-0.18979 0.22918-0.31266 0.36322-0.42818 0.45983-1.0123 1.0872-1.0123 1.9863v1.2692h-2.5652v-1.2692c0-0.85449-0.56954-1.527-0.94932-1.9719-0.09494-0.1117-0.19348-0.22872-0.2363-0.29202-0.3835-0.592-0.57785-1.1948-0.57785-1.7924 0-1.6848 1.3979-3.0595 3.1162-3.0595zm-2.1927 11.248c-0.34813 0-0.6315 0.28338-0.6315 0.6315 0 0.34813 0.28337 0.6315 0.6315 0.6315h4.3245c0.34813 0 0.63047-0.28337 0.63047-0.6315 0-0.34813-0.28234-0.6315-0.63047-0.6315zm0 2.2371c-0.34813 0-0.6315 0.28234-0.6315 0.63047s0.28337 0.6315 0.6315 0.6315h4.3245c0.34813 0 0.63047-0.28338 0.63047-0.6315 0-0.34813-0.28234-0.63047-0.63047-0.63047z" stroke-width=".57"/>
</svg>
