<svg width="24" height="24" version="1.1" viewBox="0 0 24 24" xmlns="http://www.w3.org/2000/svg">
 <style>path{fill:#000}@media (prefers-color-scheme:dark){path{fill:#fff}}</style>
 <path d="m2.1963 17.046c1.7442 3.353 5.1057 5.6306 8.9413 5.927 0.2963 0.0173 0.5842 0.0253 0.8721 0.0253 2.6248 0 5.148-0.9229 7.1632-2.6502 2.2353-1.922 3.5985-4.5976 3.8271-7.5357 0.0254-0.4318-0.2879-0.8044-0.7197-0.8383-0.4318-0.0253-0.7959 0.2879-0.8298 0.7197-0.4064 5.2158-4.9871 9.1107-10.186 8.7296-3.2768-0.254-6.1641-2.1845-7.6712-5.0379l0.81284-0.3895c0.09314-0.0338 0.1524-0.1185 0.1524-0.2201 0.00845-0.0932-0.03388-0.1862-0.11007-0.2456l-3.1244-2.1506-0.30482 3.7763c-0.00845 0.0932 0.03388 0.1862 0.11855 0.2456 0.07621 0.0591 0.1778 0.0591 0.27094 0.0253zm-0.48262-5.021c0.01691 0.0087 0.04233 0.0087 0.05926 0.0087 0.39795 0 0.74511-0.3133 0.77051-0.7197 0.19473-2.5232 1.3632-4.8263 3.2852-6.4689 1.9305-1.6511 4.369-2.4639 6.9091-2.2607 3.2768 0.25402 6.1556 2.1845 7.6628 5.0379l-0.8552 0.39795c-0.0847 0.04226-0.1439 0.13547-0.1524 0.22861-0.0085 0.10166 0.0339 0.19465 0.1185 0.25402l3.1583 2.1845 0.3048-3.8271c0.0084-0.10166-0.0339-0.19465-0.1185-0.25402-0.0763-0.05072-0.1863-0.05918-0.271-0.02536l-0.7874 0.37228c-1.7358-3.3445-5.1057-5.6222-8.9413-5.9185-6.0879-0.46571-11.388 4.0896-11.854 10.161-0.033877 0.4234 0.28788 0.8044 0.71124 0.8298m15.774 0.8128c-0.4572 0-0.8382-0.3725-0.8382-0.8382 0-0.4572 0.381-0.8383 0.8382-0.8383 0.4657 0 0.8383 0.3811 0.8383 0.8383 0 0.4657-0.3726 0.8382-0.8383 0.8382m0-2.9126c-1.1431 0-2.0829 0.93135-2.0829 2.0744 0 1.1515 0.9398 2.0829 2.0829 2.0829 1.1515 0 2.0829-0.9314 2.0829-2.0829 0-1.1431-0.9314-2.0744-2.0829-2.0744m-7.5611 2.0744c0 1.1515 0.93143 2.0829 2.0829 2.0829 1.1431 0 2.0744-0.9314 2.0744-2.0829 0-1.1431-0.9313-2.0744-2.0744-2.0744-1.1515 0-2.0829 0.93135-2.0829 2.0744m-2.5655 0c0 0.4657-0.38103 0.8382-0.83825 0.8382-0.4657 0-0.83824-0.3725-0.83824-0.8382 0-0.4572 0.37254-0.8298 0.83824-0.8298 0.45722 0 0.83825 0.3726 0.83825 0.8298m-2.9212 0c0 1.1515 0.93138 2.0829 2.0829 2.0829 1.1431 0 2.0829-0.9314 2.0829-2.0829 0-1.1431-0.93985-2.0829-2.0829-2.0829-1.1515 0-2.0829 0.93983-2.0829 2.0829"/>
</svg>
