<?xml version="1.0" encoding="UTF-8"?>
<svg width="24" height="24" version="1.1" viewBox="0 0 24 24" xmlns="http://www.w3.org/2000/svg">
 <style>path{fill:#000}@media (prefers-color-scheme:dark){path{fill:#fff}}</style>
 <path d="m12 5.711c2.1522 0 3.8986-0.26814 3.8986-0.59978 0-0.32988-1.7464-0.59978-3.8986-0.59978-2.1521 0-3.8986 0.2699-3.8986 0.59978 0 0.33164 1.7464 0.59978 3.8986 0.59978m4.8704 14.027c-1.2931 0.5398-3.0695 0.85204-4.8706 0.85204-1.7729 0-3.5405-0.31224-4.8459-0.85028-1.189-0.49394-1.7217-1.0655-1.7217-1.4165v-11.35c0.32459 0.17641 0.7215 0.34928 1.2013 0.50981 1.4448 0.47806 3.3517 0.73914 5.3663 0.73914 2.0163 0 3.9197-0.26108 5.3663-0.73914 0.47806-0.16053 0.87497-0.33341 1.2031-0.50981v11.343c0 0.49217-0.85204 1.0673-1.6988 1.4218m-9.7923-15.658c1.3036-0.43219 3.0536-0.67034 4.9217-0.67034 1.8717 0 3.6198 0.23815 4.9217 0.67034 1.3442 0.44278 1.6476 0.9032 1.6476 1.0302 0 0.12701-0.30342 0.58743-1.6476 1.032-1.3019 0.43219-3.0501 0.66858-4.9217 0.66858-1.8681 0-3.6181-0.23638-4.9217-0.66858-1.3424-0.44454-1.6459-0.90496-1.6459-1.032 0-0.12701 0.30342-0.58743 1.6459-1.0302m12.899 0.95965c-0.02823-0.68269-0.52392-1.6106-2.6108-2.3021-1.4465-0.47453-3.3499-0.73914-5.3663-0.73914-2.0146 0-3.9215 0.26461-5.3663 0.73914-2.1186 0.70209-2.5949 1.6476-2.6126 2.3321h-0.00176v13.253c0 1.062 0.9226 2.0287 2.5967 2.7219 1.4906 0.61566 3.4029 0.95436 5.3839 0.95436 2.0093 0 3.9338-0.3387 5.4157-0.95965 1.6547-0.69327 2.5649-1.6582 2.5649-2.7237v-13.276z"/>
</svg>
