<svg width="24" height="24" version="1.1" viewBox="0 0 24 24" xmlns="http://www.w3.org/2000/svg">
 <style>path{fill:#000}@media (prefers-color-scheme:dark){path{fill:#fff}}</style>
 <path d="m7.6391 5.2115c1.076-1.285 2.5518-1.8713 3.1381-2.0633 0.3386-0.11249 0.7464-0.16816 1.21-0.1727 0.4647 0.00454 0.8726 0.06021 1.2134 0.1727 0.5852 0.19201 2.0599 0.77827 3.1359 2.0633 0.8566 1.0237 1.3565 1.9474 1.652 2.7745-0.5352-0.27496-1.2021-0.47379-2.0315-0.57604-0.9328-0.11589-2.3678-0.25564-3.9084-0.26018h-0.0091-0.0046c-1.8531 0.00681-3.5562 0.2011-4.0356 0.26018-0.81577 0.10112-1.4782 0.29427-2.0088 0.56354 0.29654-0.82372 0.79645-1.7452 1.6486-2.762m-1.8667 12.543c0.06363 0.2829 0.31699 0.4771 0.59649 0.4771 0.04431 0 0.08635-0.0045 0.13066-0.0147 0.32835-0.0739 0.53627-0.3988 0.4647-0.7272-0.0125-0.0488-1.126-5.0809-1.3066-6.6216-0.01818-0.1579-0.03409-0.3283-0.04204-0.5067h0.00455c-0.01137-0.0636 0-0.1125-0.00455-0.1693-0.00341-0.1307-0.00682-0.2579 0-0.39765 0.02954-0.14997 0.08181-0.28745 0.1727-0.41243 0.34653-0.4806 1.1771-0.82259 2.3348-0.96802 0.95893-0.11816 2.4893-0.24655 3.9186-0.25223 1.4907 0.00568 2.8848 0.14089 3.7914 0.25223 1.1589 0.14543 1.9883 0.48742 2.3349 0.96802 0.1931 0.26473 0.2477 0.58513 0.1681 0.97938l0.0227 0.0034c-0.0079 0.1784-0.0227 0.3465-0.0409 0.5033-0.1795 1.5384-1.3486 6.566-1.36 6.6159-0.0761 0.3273 0.1262 0.6556 0.4534 0.7306 0.0488 0.0125 0.0954 0.017 0.1397 0.017 0.2773 0 0.5283-0.1897 0.592-0.4703 0.05-0.2102 1.1964-5.1469 1.3838-6.7511 0.2682-2.2962-0.4703-4.4482-2.2564-6.5796-1.2771-1.5259-3.0074-2.2144-3.688-2.4394-0.4386-0.14543-0.951-0.21587-1.5123-0.22609-0.0136-0.00228-0.0261-0.01023-0.042-0.01023-0.0148 0-0.0261 0.00341-0.0409 0.00341-0.0136 0-0.0273-0.00341-0.0409-0.00341-0.0159 0-0.0284 0.00795-0.0432 0.01023-0.5601 0.01022-1.0714 0.08066-1.5077 0.22609-0.68395 0.22497-2.4132 0.91235-3.6891 2.4394-1.7883 2.1315-2.5268 4.2834-2.2576 6.5796 0.18634 1.602 1.2782 6.5341 1.3236 6.7443m9.6198-0.0177c-0.0386 0.2761 0.1557 0.534 0.4317 0.5704 0.0239 0.0045 0.0466 0.0057 0.0693 0.0057 0.25 0 0.467-0.1841 0.5011-0.4386 0.0068-0.0454 0.6249-4.5378 0.8442-5.7638 0.1125-0.634 0.0568-1.7633-1.5759-2.2076-0.634-0.17383-2.3155-0.3204-3.6766-0.3204-1.1305 0-2.8155 0.13407-4.0266 0.43405-1.3623 0.3374-1.2055 1.5213-1.1521 1.9099l0.01363 0.1295c0.02272 0.3522 0.69079 5.2593 0.76805 5.8183 0.03636 0.2761 0.2795 0.4852 0.56922 0.4329 0.27836-0.0364 0.47151-0.2943 0.43402-0.5704-0.29654-2.1746-0.74419-5.5002-0.76123-5.7444-0.00228-0.0557-0.01137-0.1239-0.01932-0.1966-0.06931-0.5238-0.02727-0.6919 0.39198-0.7942 0.97483-0.2442 2.4962-0.4056 3.7824-0.4056 1.3577 0 2.9199 0.15 3.4096 0.2852 0.8658 0.2352 0.918 0.6453 0.8453 1.0521-0.2215 1.2452-0.8237 5.6172-0.8487 5.8035m7.6076-3.0208c0.0034-0.075-0.0364-0.1488-0.1057-0.1909l-2.6382-1.6065-0.1159 2.962c-0.0023 0.075 0.0387 0.1488 0.1045 0.1886 0.0694 0.042 0.1546 0.0466 0.2239 0.0113l0.8044-0.3942c0.2022 0.3602 0.3124 0.7283 0.3124 1.1055 0 2.4427-4.3845 4.5083-9.5745 4.5083s-9.5756-2.0656-9.5756-4.5083c0-0.4056 0.13294-0.7692 0.31472-1.0953l0.77942 0.384c0.07271 0.0353 0.15792 0.0307 0.22496-0.0113 0.06703-0.0398 0.10793-0.1136 0.10339-0.1886l-0.11248-2.962-2.6405 1.6065c-0.06817 0.0421-0.1068 0.1159-0.10453 0.1909 0.00341 0.075 0.04772 0.1443 0.1193 0.1795l0.77487 0.3818c-0.26132 0.4874-0.40334 0.9964-0.40334 1.5145 0 3.0574 4.6197 5.4525 10.52 5.4525 5.899 0 10.519-2.3951 10.519-5.4525 0-0.5215-0.1477-1.0317-0.4124-1.5214l0.7635-0.3749c0.0704-0.0352 0.1159-0.1045 0.1193-0.1795"/>
</svg>
