<?xml version="1.0" encoding="UTF-8"?>
<svg width="24" height="24" version="1.1" viewBox="0 0 24 24" xmlns="http://www.w3.org/2000/svg">
 <style>path{fill:#000}@media (prefers-color-scheme:dark){path{fill:#fff}}</style>
 <path d="m14.719 9.3281c-0.63845 0-1.2604 0.19347-1.7278 0.4609l0.25272 0.57668c0.28791-0.16262 0.83576-0.38408 1.3538-0.38408 0.68905 0 1.0832 0.38424 1.0832 0.98414 0 0.57099-0.34154 0.94757-0.84387 1.4005l-1.8247 1.6154v0.60785h3.4835v-0.66686h-2.4225l1.2291-1.0743c0.74807-0.64448 1.2001-1.1406 1.2001-1.926-1e-6 -1.0155-0.7475-1.5942-1.7835-1.5942zm-13.484 0.07459v5.1868h0.82272v-1.8224h1.6744c1.0661 0 1.7033-0.76424 1.7033-1.6822 0-0.86733-0.6377-1.6822-1.7122-1.6822zm5.0999 0v5.1857h0.82271v-3.0738l-0.052326-1.1634h0.0078l1.6588 3.7117h0.73365l1.6521-3.7117h0.01447l-0.05121 1.1634v3.0738h0.82272v-5.1857h-1.1645l-1.6154 3.8085-1.651-3.8085zm13.134 0-0.17033 2.5338 0.50432 0.31951c0.24454-0.16985 0.56239-0.36404 1.0298-0.36404 0.71916 0 1.0955 0.40758 1.0955 1.052 0 0.72639-0.53939 1.0821-1.2513 1.0821-0.62279 0-1.0674-0.22257-1.3638-0.3852l-0.26608 0.59115c0.35536 0.19394 0.91962 0.43195 1.7412 0.43195 1.2516 0 1.9772-0.70512 1.9772-1.7568 0-0.9107-0.61425-1.5931-1.7044-1.5931-0.45776 0-0.82813 0.09733-1.0944 0.26719l0.08795-1.5341h2.4292v-0.64459zm-17.412 0.63791h1.4506c0.66014 0 1.0598 0.48106 1.0598 1.0521 0 0.5999-0.39971 1.0376-1.0598 1.0376h-1.4506zm15.722 3.8208c-0.24454 0-0.41414 0.14958-0.41414 0.40858 0 0.26622 0.1696 0.40189 0.41414 0.40189 0.25177 0 0.43084-0.1429 0.43084-0.40189 0-0.259-0.17907-0.40858-0.43084-0.40858z"/>
</svg>
