<svg width="24" height="24" version="1.1" viewBox="0 0 24 24" xmlns="http://www.w3.org/2000/svg">
 <style>path{fill:#000}@media (prefers-color-scheme:dark){path{fill:#fff}}</style>
 <path d="m14.766 22.713 0.1213-1.9402c0.3118 0.1213 0.6496 0.2078 1.0134 0.2685 0.3552 0.0519 0.6929 0.0867 1.0048 0.0867 0.6496 0 1.1433-0.1299 1.4984-0.3724 0.3551-0.2512 0.537-0.6063 0.537-1.0827 0-0.9095-0.7276-1.3599-2.1654-1.3599-0.5716 0-1.1693 0.0867-1.8102 0.2512l0.0605-5.1362h5.9418v1.7322h-3.8629l-0.026 1.5764c0.1818-0.0259 0.3465-0.0432 0.5024-0.0605 0.1472-0.0177 0.3118-0.0177 0.485-0.0177 0.6323 0 1.204 0.1126 1.6977 0.3464 0.5023 0.2252 0.8921 0.5544 1.1693 0.9875 0.2858 0.4244 0.4244 0.9354 0.4244 1.533 0 0.6843-0.1645 1.2906-0.511 1.8189-0.3378 0.5284-0.8229 0.9355-1.4552 1.2213s-1.3685 0.4331-2.2173 0.4331c-0.8402 0-1.6457-0.0954-2.4079-0.2858m-3.8717-2.1825h2.2866v2.2866h-2.2866zm-8.3757 0.511c1.0047-0.7622 1.7929-1.4032 2.3733-1.9315 0.57165-0.5197 0.99607-1.0047 1.2732-1.4465 0.26849-0.4417 0.40708-0.8748 0.40708-1.2992 0-0.4331-0.12994-0.7449-0.40708-0.9354-0.26852-0.1994-0.62363-0.2945-1.074-0.2945-0.73622 0-1.4724 0.2077-2.2 0.6063l-0.22519-1.9229c0.38976-0.1731 0.85749-0.3118 1.4032-0.4071 0.54569-0.1039 1.1-0.1558 1.6544-0.1558 0.59764 0 1.1606 0.0953 1.6716 0.2858 0.5197 0.1905 0.93545 0.5024 1.2559 0.9181 0.32048 0.4158 0.47638 0.9528 0.47638 1.6024 0 0.4157-0.06054 0.8055-0.19047 1.1779-0.12129 0.3725-0.33781 0.7622-0.64097 1.1694-0.29448 0.3984-0.7189 0.8401-1.2559 1.2992-0.35513 0.3204-0.64961 0.563-0.88348 0.7362-0.23386 0.1732-0.49371 0.3638-0.77953 0.563v0.0259c0.87481-0.0259 1.7929-0.0432 2.7543-0.0432h1.1866v1.8276h-6.7993zm7.8733-20.043h3.8284l0.8228 2.7544c0.2599 0.8748 0.5717 1.9921 0.9181 3.3607h0.026c0.3118-1.152 0.6409-2.278 0.9787-3.3607l0.8488-2.7544h3.6639v8.8347h-2.2953v-2.7803c0-1.126 0.0177-2.5898 0.0519-4.4h-0.026c-0.1472 0.52834-0.3291 1.152-0.5543 1.8882-0.2252 0.73623-0.4244 1.3685-0.5977 1.8969l-1.1433 3.3953h-2.0961l-1.1606-3.4126c-0.1299-0.42442-0.3118-1.0047-0.537-1.7496-0.2339-0.73623-0.4331-1.4118-0.615-2.0181h-0.0259c0.0346 1.8102 0.0519 3.274 0.0519 4.4v2.7803h-2.1394zm-4.8851 4.0103c0.44174 0 0.82283-0.0867 1.1173-0.25985 0.30316-0.18182 0.45039-0.48504 0.45039-0.91811 0-0.41575-0.14723-0.71026-0.45039-0.89215-0.29451-0.18182-0.6756-0.2685-1.1173-0.2685h-0.51103v2.3386zm-2.9189-4.0103h3.0402c1.1953 0 2.1307 0.20776 2.8063 0.6323 0.68427 0.42442 1.0221 1.152 1.0221 2.1914 0 1.048-0.36378 1.7929-1.0827 2.226-0.72758 0.44174-1.637 0.65826-2.7457 0.65826h-0.6323v3.1268h-2.4079z"/>
</svg>
