<svg width="24" height="24" version="1.1" viewBox="0 0 24 24" xmlns="http://www.w3.org/2000/svg">
 <style>path{fill:#000}@media (prefers-color-scheme:dark){path{fill:#fff}}</style>
 <path d="m18.696 16.748h-1.5036l-0.0423 0.7824c0.1583-0.0878 0.3841-0.1395 0.6538-0.1395 0.7024 0 1.0677 0.4531 1.0677 1.0081 0 0.657-0.4437 1.1336-1.2621 1.1336-0.5566 0-0.9267-0.1568-1.1524-0.29l0.2132-0.4626c0.1897 0.1004 0.4625 0.2493 0.8466 0.2493 0.3826 0 0.6884-0.1944 0.6884-0.6021 0-0.3559-0.2039-0.5832-0.5911-0.5832-0.2775 0-0.4673 0.1207-0.5927 0.2132l-0.3982-0.2493 0.1113-1.5694h1.9614zm-2.7117 2.489c0 0.1991-0.1348 0.3058-0.3245 0.3058-0.185 0-0.3136-0.1019-0.3136-0.3058 0-0.1897 0.1286-0.3057 0.3136-0.3057 0.1897 0 0.3245 0.116 0.3245 0.3057m-1.1397-2.0309c0 0.5096-0.2963 0.795-0.7306 1.1697l-0.6569 0.5738h1.3828v0.5284h-2.2248v-0.4813l1.1336-0.9988c0.2775-0.2555 0.4437-0.45 0.4437-0.751 0-0.3089-0.1897-0.5456-0.5974-0.5456-0.3135 0-0.6616 0.1442-0.8466 0.2509l-0.1992-0.4642c0.3246-0.1881 0.7401-0.3041 1.143-0.3041 0.6758 0 1.1524 0.3888 1.1524 1.0222m-2.8756 2.2716h-0.6476v-1.629l0.0408-0.8655h-0.0078l-0.9031 2.2029h-0.58329l-0.90154-2.2029h-0.00941l0.04076 0.8655v1.629h-0.64753v-3.2393h0.93603l0.89688 2.25 0.8654-2.25h0.9204zm-5.2299-3.2386c0.69929 0 1.0913 0.5315 1.0913 1.0787 0 0.5911-0.3967 1.0771-1.0866 1.0771h-0.96737v1.0834h-0.64754v-3.2392zm-0.96269 0.5095v1.1383h0.78709c0.35119 0 0.58326-0.2273 0.58326-0.566 0-0.3136-0.23207-0.5723-0.58326-0.5723zm16.224-2.9876v-1.121-0.1004l-0.0016 0.0032c-0.047-1.5318-1.1978-2.8018-2.7061-3.084-0.185-0.79805-0.6053-1.5287-1.2277-2.1104-0.8216-0.76827-1.9034-1.19-3.048-1.19-0.2916 0-0.5801 0.02664-0.8608 0.08152-0.8638-1.4268-2.4678-2.3393-4.2192-2.3393-1.2966 0-2.5055 0.48918-3.4039 1.375-0.26495 0.26185-0.49546 0.55189-0.68829 0.86079l-0.14741-4.1361h-3.258l-0.31828 8.9417-0.06429 1.8187-0.05644 1.5789v7.6607h20zm-1.1994 7.0399h-17.601v-6.43l0.39824-11.17h0.94232l0.41703 11.759h2.471l0.14272-0.3951c0.72748-2.0148 2.5525-3.4243 4.6504-3.6532v4.0483h2.587l0.1427-0.3951c0.7275-2.0148 2.5509-3.4243 4.6487-3.6532v4.0483h1.2011z"/>
</svg>
