<?xml version="1.0" encoding="UTF-8"?>
<svg width="24" height="24" version="1.1" viewBox="0 0 24 24" xmlns="http://www.w3.org/2000/svg">
 <style>path{fill:#000}@media (prefers-color-scheme:dark){path{fill:#fff}}</style>
 <path d="m12 0.34286c-0.52721 0-0.95293 0.42761-0.95293 0.95293v11.186c0 0.52721 0.42572 0.95293 0.95293 0.95293s0.95295-0.42572 0.95295-0.95293v-11.186c0-0.52534-0.42574-0.95293-0.95295-0.95293zm-4.7636 3.5697c-0.18367-6.675e-4 -0.36918 0.051694-0.5331 0.16216-2.6492 1.7749-4.2327 4.7354-4.2327 7.9213 0 5.2534 4.2742 9.5293 9.5293 9.5293 5.2553 0 9.5293-4.2761 9.5293-9.5293 0-3.1858-1.5835-6.1462-4.2327-7.9213-0.43716-0.29458-1.0301-0.17615-1.3228 0.261-0.29268 0.43716-0.17615 1.0301 0.261 1.3228 2.122 1.4203 3.3885 3.7895 3.3885 6.3373 0 4.2026-3.419 7.6236-7.6236 7.6236-4.2026 0-7.6236-3.4207-7.6236-7.6236 0-2.5479 1.2666-4.917 3.3885-6.3373 0.43716-0.29268 0.55369-0.88564 0.261-1.3228-0.18292-0.27323-0.48352-0.42203-0.78968-0.42316z" stroke-width=".55787"/>
</svg>
