<?xml version="1.0" encoding="UTF-8"?>
<svg width="24" height="24" version="1.1" viewBox="0 0 24 24" xmlns="http://www.w3.org/2000/svg">
 <style>path{fill:#000}@media (prefers-color-scheme:dark){path{fill:#fff}}</style>
 <path d="m2 13.237c0 1.6298 1.3194 2.9545 2.9545 2.9545h5.3974v4.2792c0 0.0194 0.0018 0.0388 0.0018 0.05644v1.591h3.3302v-1.5928c0.0018-0.01588 0.0053-0.03704 0.0053-0.05468v-4.2792h5.3533c1.6333 0 2.958-1.3247 2.958-2.9545v-1.9455h-20.001zm18.887-11.237c-0.61383 0-1.1112 0.49741-1.1112 1.113v5.9513h2.2242v-5.9513c0-0.61559-0.49918-1.113-1.113-1.113m-4.4174 0c-0.61559 0-1.1112 0.49741-1.1112 1.113v5.9513h2.2225v-5.9513c0-0.61559-0.49741-1.113-1.1112-1.113m-3.3385 1.1132c0-0.61383-0.49741-1.113-1.1112-1.113-0.61559 0-1.1112 0.49918-1.1112 1.113v5.9495h2.2225zm-5.5613-1.1132c-0.61383 0-1.1112 0.49741-1.1112 1.113v5.9513h2.2242v-5.9513c0-0.61559-0.49918-1.113-1.113-1.113m-5.5617 1.1132v5.9495h2.226v-5.9495c0-0.61383-0.49918-1.113-1.1148-1.113-0.61383 0-1.1112 0.49918-1.1112 1.113"/>
</svg>
