<?xml version="1.0" encoding="UTF-8"?>
<svg width="24" height="24" version="1.1" viewBox="0 0 24 24" xmlns="http://www.w3.org/2000/svg">
 <style>path{fill:#000}@media (prefers-color-scheme:dark){path{fill:#fff}}</style>
 <path d="m11.584 2.5648c-4.9794 0-9.0187 4.0382-9.0187 9.0176 0 4.9831 4.0393 9.022 9.0187 9.022 0.03538 0 0.07038-0.0056 0.10576-0.0056-0.3296-0.36125-0.56586-0.80278-0.6869-1.2925-1.8491-0.13594-3.5715-0.9152-4.8973-2.241-1.4636-1.4636-2.2722-3.4104-2.2722-5.4829 0-2.0688 0.80857-4.0159 2.2722-5.4796 1.4618-1.4636 3.4096-2.27 5.4785-2.27 2.0744 0 4.0185 0.80634 5.484 2.27 1.4003 1.4003 2.1874 3.243 2.2544 5.2113 0.3147-0.22718 0.69321-0.36404 1.1066-0.36404 0.05028 0 0.09481 0.01039 0.14695 0.01224-0.32029-4.6888-4.2193-8.3975-8.992-8.3975zm-1.71 2.9457c-0.57726 0-1.0465 0.46775-1.0465 1.0431s0.46922 1.0409 1.0465 1.0409c0.57354 0 1.0387-0.46552 1.0387-1.0409s-0.46516-1.0431-1.0387-1.0431zm3.3476 0c-0.57726 0-1.0465 0.46775-1.0465 1.0431s0.46922 1.0409 1.0465 1.0409c0.57354 0 1.0387-0.46552 1.0387-1.0409s-0.46516-1.0431-1.0387-1.0431zm-6.6997 3.3554c-0.57726 0-1.0465 0.46774-1.0465 1.0431 0 0.5754 0.46922 1.0409 1.0465 1.0409 0.5754 0 1.0409-0.46552 1.0409-1.0409 0-0.5754-0.46552-1.0431-1.0409-1.0431zm3.3521 0c-0.57726 0-1.0465 0.46774-1.0465 1.0431 0 0.5754 0.46922 1.0409 1.0465 1.0409 0.57354 0 1.0387-0.46552 1.0387-1.0409 0-0.5754-0.46516-1.0431-1.0387-1.0431zm3.3476 0c-0.57726 0-1.0465 0.46774-1.0465 1.0431 0 0.5754 0.46922 1.0409 1.0465 1.0409 0.57354 0 1.0387-0.46552 1.0387-1.0409 0-0.5754-0.46516-1.0431-1.0387-1.0431zm3.3421 0c-0.5754 0-1.0431 0.46774-1.0431 1.0431 0 0.5754 0.46775 1.0409 1.0431 1.0409 0.57354 0 1.0431-0.46552 1.0431-1.0409 0-0.5754-0.46961-1.0431-1.0431-1.0431zm-3.7395 3.3521c-0.34822 0-0.63457 0.28151-0.63457 0.63346v3.3911h1.2703v-3.3911c0-0.35194-0.2856-0.63346-0.63568-0.63346zm2.5349 0c-0.34822 0-0.63234 0.28151-0.63234 0.63346v3.3911h1.2691v-3.3911c0-0.35194-0.28485-0.63346-0.6368-0.63346zm2.5372 0c-0.35194 0-0.63457 0.28151-0.63457 0.63346v3.3911h1.2658v-3.3911c0-0.35194-0.28115-0.63346-0.63123-0.63346zm2.5327 0c-0.34822 0-0.63234 0.28151-0.63234 0.63346v3.3911h1.268v-3.3911c0-0.35194-0.28374-0.63346-0.63568-0.63346zm-13.907 0.0011c-0.57726 0-1.0465 0.46775-1.0465 1.0431s0.46922 1.042 1.0465 1.042c0.5754 0 1.0409-0.46663 1.0409-1.042s-0.46552-1.0431-1.0409-1.0431zm3.3521 0c-0.57726 0-1.0465 0.46775-1.0465 1.0431s0.46922 1.042 1.0465 1.042c0.57354 0 1.0387-0.46663 1.0387-1.042s-0.46516-1.0431-1.0387-1.0431zm0 3.3565c-0.57726 0-1.0465 0.46663-1.0465 1.042 0 0.5754 0.46922 1.0431 1.0465 1.0431 0.57354 0 1.0387-0.46774 1.0387-1.0431s-0.46516-1.042-1.0387-1.042zm2.3145 1.9349v1.1099c0 0.92734 0.74813 1.6822 1.6811 1.6822h3.0749v2.4392c0 0.01117 0.0034 0.02 0.0034 0.03117v0.90732h1.8981v-3.3777h3.0515c0.93107 0 1.6855-0.75482 1.6855-1.6822v-1.1099z" stroke-width=".57"/>
</svg>
