<?xml version="1.0" encoding="UTF-8"?>
<svg width="24" height="24" version="1.1" viewBox="0 0 24 24" xmlns="http://www.w3.org/2000/svg">
 <style>path{fill:#000}@media (prefers-color-scheme:dark){path{fill:#fff}}</style>
 <path d="m12.001 1.6331c-0.10078 0-0.1973 0.04092-0.26719 0.11244l-10.003 11.07c-0.1089 0.1089-0.14038 0.26768-0.0835 0.40746 0.06014 0.14304 0.19669 0.23268 0.34623 0.23268h3.2619v8.9107h13.489v-8.9107h3.2597c0.15279 0 0.28994-0.08964 0.34846-0.23268 0.05689-0.13978 0.02601-0.29856-0.08127-0.40746l-10.005-11.07c-0.07152-0.07152-0.16744-0.11244-0.26496-0.11244zm4.6813 7.7829h0.01336c0.03413 0.0032 0.06845 0.02033 0.08795 0.05121 0.0065 0.0081 0.01122 0.0198 0.01447 0.03117 0.0032 0.0065 0.0044 0.01465 0.0044 0.02115v0.01113c0 0.01626 4.49e-4 0.02759-0.0044 0.03897l-0.0044 0.01447c-0.10728 0.23081-0.19705 0.47161-0.27832 0.72029-0.0065 0.02275-0.01688 0.04859-0.02338 0.07459-0.04551 0.14466-0.08568 0.29406-0.12469 0.44197-0.05526 0.2178-0.10367 0.44084-0.14918 0.66352-0.01951 0.1024-0.0389 0.20547-0.05678 0.30949-0.01463 0.07639-0.02819 0.15072-0.04119 0.22711-0.0195 0.10565-0.03607 0.21172-0.05233 0.32062-0.0195 0.11378-0.03556 0.23143-0.05344 0.34846-0.0098 0.06501-0.01919 0.13203-0.02894 0.19705-0.01626 0.1089-0.03273 0.2178-0.04899 0.32508-0.01626 0.1089-0.03273 0.21832-0.04899 0.32396-0.02601 0.1853-0.05484 0.36894-0.08572 0.54773-0.05851 0.34946-0.12177 0.69213-0.19816 1.0253-0.03901 0.16904-0.082 0.33519-0.12914 0.50098-0.02926 0.10565-0.06161 0.21395-0.09574 0.32285-0.03576 0.10565-0.07334 0.21154-0.1091 0.31394-0.02113 0.05201-0.04061 0.10273-0.06012 0.15475-0.04064 0.1024-0.08586 0.20255-0.13137 0.3017-0.02275 0.04876-0.04687 0.10153-0.07125 0.15029-0.04876 0.09752-0.10111 0.19022-0.15475 0.28611-0.08127 0.14141-0.1718 0.2758-0.26607 0.40746-0.09752 0.13491-0.20179 0.25995-0.31395 0.38186-0.45023 0.48599-1.0337 0.88381-1.8057 1.1634l-0.11022 0.03117c-0.04876 0.01463-0.09768 0.02647-0.14807 0.03785-0.013 0.0032-0.02485 0.0062-0.03785 0.0078-0.04714 0.0081-0.09253 0.01748-0.13805 0.0256-0.0032 0-0.0046 9e-5 -0.0078 0.0034-0.04876 0.0081-0.09982 0.01516-0.14695 0.02004-0.01463 0.0032-0.02596 0.0034-0.03897 0.0067-0.04388 0.0017-0.08526 0.0079-0.12914 0.01113h-0.0167c-0.04876 0.0017-0.09708 0.0046-0.14584 0.0078h-0.14362c-0.01626-0.0032-0.03556-0.0034-0.05344-0.0034-0.03901 0-0.07677-0.0028-0.11578-0.0044-0.013 0-0.02091-9e-5 -0.03228-0.0034-0.04876-0.0032-0.10042-8e-3 -0.14918-0.01447-0.01463 0-0.02596-0.0039-0.03896-0.0056-0.03576-0.0032-0.07172-0.0097-0.1091-0.01781-0.01788-0.0032-0.03444-0.0046-0.05233-0.0078-0.03251-0.0065-0.06486-0.01131-0.09574-0.01781-0.01788-0.0049-0.03556-8e-3 -0.05344-0.01447-0.03251-0.0049-0.06486-0.01362-0.09574-0.02338-0.01788-0.0049-0.03273-0.0074-0.04899-0.01224-0.04064-0.0098-0.07677-0.02091-0.11578-0.03228-0.0098-0.0017-0.01971-0.0058-0.02783-0.01224-0.03739-0.01138-0.07283-0.0221-0.11022-0.03674-0.0032 0.0032-0.0034 0.0067-0.0034 0.0067-0.23406 0.47949-0.40951 0.95738-0.56555 1.4027-0.0894 0.25681-0.32938 0.41859-0.58781 0.4186-0.06827 0-0.1382-0.01073-0.20484-0.03674-0.32345-0.11053-0.49786-0.46535-0.38408-0.79043 0.16742-0.48437 0.35901-1.0028 0.62232-1.5408 0.01788-0.03413 0.03454-0.06203 0.05567-0.09129-0.0081-0.0081-0.01637-0.01405-0.02449-0.01892-0.01138-0.01138-0.02648-0.02253-0.03785-0.03228-0.03088-0.03088-0.06263-0.06041-0.09352-0.09129-0.0049-0.0049-0.0085-0.0079-0.01336-0.01113-0.03576-0.03739-0.0694-0.07172-0.10354-0.1091-0.0081-0.01138-0.01808-0.02314-0.02783-0.03451-0.02275-0.026-0.04575-0.05141-0.07014-0.07904-0.01138-0.01463-0.02151-0.02656-0.03451-0.04119-0.02113-0.02601-0.04224-0.04978-0.06012-0.07904-0.01138-0.01463-0.02364-0.02768-0.0334-0.04231-0.01951-0.02926-0.04061-0.05586-0.06012-0.0835-0.0081-0.01463-0.0197-0.02545-0.02783-0.04008-0.026-0.04064-0.05192-0.0796-0.07793-0.12023 0-0.0017-0.0022-0.0056-0.0022-0.0056-0.02926-0.04551-0.05355-0.09091-0.07793-0.13805-0.0081-0.01138-0.01414-0.02433-0.02226-0.03896-0.01626-0.03251-0.03273-0.06375-0.04899-0.09463-0.0081-0.01788-0.01637-0.03333-0.02449-0.05121-0.013-0.03088-0.02545-0.06366-0.04008-0.09129-0.0081-0.01951-0.01525-0.03719-0.02338-0.05344-0.013-0.03576-0.02545-0.06718-0.04008-0.10131-0.0049-0.01788-0.01182-0.03111-0.0167-0.04899-0.01788-0.04876-0.03435-0.09657-0.04899-0.14695-0.04388-0.13491-0.07581-0.26982-0.1002-0.40635-0.02275-0.13166-0.03974-0.26407-0.04787-0.3941-0.0032-0.03739-0.0034-0.07172-0.0034-0.1091-0.0017-0.03251-0.0011-0.06606-0.0011-0.1002 0-0.06827 0.0012-0.13375 0.0044-0.20039 0.0032-0.03088 0.0057-0.06435 0.0089-0.09686 0.0081-0.09915 0.0222-0.20075 0.04008-0.29502l0.0167-0.08461 0.01558-0.08238c0.04551-0.22105 0.11614-0.44418 0.21041-0.66686 0.04876-0.11378 0.09906-0.22508 0.1592-0.33398 0.07802-0.15116 0.1653-0.29578 0.26608-0.44531 0.04876-0.07314 0.09897-0.1478 0.15586-0.21932 0.05364-0.07477 0.1107-0.1484 0.16922-0.22154 0.11865-0.14466 0.24704-0.2878 0.3852-0.43084 0.06827-0.07152 0.14061-0.14001 0.21375-0.21152 0.07314-0.07152 0.14909-0.13992 0.22711-0.20818 0.15441-0.13978 0.31978-0.27478 0.49207-0.40969 0.04226-0.03088 0.08697-0.06495 0.13248-0.09908 0.08777-0.06339 0.17848-0.12818 0.27275-0.19482 0.09102-0.06502 0.18525-0.12861 0.28277-0.19037 0.09752-0.06339 0.19485-0.12364 0.29725-0.18703 0.09915-0.06014 0.20162-0.11798 0.30727-0.17812 0.05364-0.02926 0.1077-0.0592 0.15809-0.08684 0.16254-0.08615 0.32577-0.17205 0.49318-0.25494 0.11215-0.05364 0.22637-0.10728 0.34178-0.16254 0.1154-0.05039 0.23426-0.10264 0.35291-0.15141 0.11865-0.05201 0.24051-0.09819 0.36404-0.14695 0.1219-0.04876 0.24668-0.09476 0.37184-0.14027 0.18854-0.06664 0.38223-0.13134 0.57891-0.19148 0.13003-0.04388 0.26356-0.08285 0.39521-0.12023 0.60302-0.17229 1.2365-0.31183 1.8948-0.41748zm-4.1893 4.0724c-0.15848 0.0189-0.31072 0.09807-0.41637 0.23379-0.57051 0.72818-1.0914 1.4483-1.553 2.1375-0.18854 0.28607-0.11077 0.67425 0.17367 0.86279 0.10565 0.07152 0.22535 0.10576 0.344 0.10576 0.20155 0 0.39851-0.0979 0.51879-0.27832 0.44373-0.66316 0.94798-1.3541 1.4974-2.0562 0.21455-0.27144 0.16568-0.66271-0.10576-0.87726-0.13491-0.10565-0.3002-0.14692-0.45867-0.12803z" stroke-width=".57"/>
</svg>
