<?xml version="1.0" encoding="UTF-8"?>
<svg width="24" height="24" version="1.1" viewBox="0 0 24 24" xmlns="http://www.w3.org/2000/svg">
 <style>path{fill:#000}@media (prefers-color-scheme:dark){path{fill:#fff}}</style>
 <path d="m6.0239 4.9841c-0.06274 0-0.12611 0.01694-0.18258 0.0501l-4.3585 2.5182 4.3585 2.5171c0.05736 0.03227 0.11916 0.04787 0.18369 0.04787 0.06274 0 0.12478-0.0156 0.18035-0.04787 0.11114-0.06453 0.18146-0.18488 0.18146-0.31394v-1.258h9.9249c2.3769 0 4.3129 1.936 4.3129 4.3129 0 2.3787-1.936 4.3129-4.3129 4.3129h-7.3833c-0.52342 0-0.94629 0.42288-0.94629 0.94629s0.42288 0.94629 0.94629 0.94629h7.3833c3.4201 0 6.2054-2.7835 6.2054-6.2054 0-3.4219-2.7853-6.2065-6.2054-6.2065h-9.9249v-1.258c0-0.12906-0.07033-0.24898-0.18146-0.31172-0.05646-0.03316-0.11873-0.0501-0.18146-0.0501z" stroke-width=".57"/>
</svg>
