<svg width="24" height="24" version="1.1" viewBox="0 0 24 24" xmlns="http://www.w3.org/2000/svg">
 <defs></defs>
 <style>path{fill:#000}@media (prefers-color-scheme:dark){path{fill:#fff}}</style>
 <g>
  <path d="m16.776 6.796c0.5764 1.3124 1.339 2.4918 2.2435 3.4672l-1.339 1.3479c-0.0266 0.0265-0.0354 0.0708-0.0266 0.1064 0.0091 0.0354 0.0354 0.062 0.0799 0.0709l5.2585 1.3922-1.4277-5.2674c-0.0181-0.03542-0.0442-0.06198-0.0708-0.07083-0.0182-0.00908-0.0182-0.00908-0.0354-0.00908-0.0266 0-0.0531 0.00908-0.0708 0.03541l-1.2593 1.2681c-1.8533-2.0395-2.9795-5.0634-3.0593-8.3178v-0.079907h-1.5873l0.0091 0.08876c0.0443 2.0927 0.4877 4.1589 1.2858 5.9679m-4.7625 8.9476 2.7046-4.6998c0.0182-0.0354 0.0182-0.0799 0-0.1064-0.0181-0.0354-0.0531-0.0532-0.0887-0.0532h-1.8533l-0.0266-10.118h-1.5784l0.0265 10.118-1.8178 0.0091c-0.03542 0-0.07083 0.0182-0.08876 0.0531-0.01816 0.0266-0.01816 0.0709 0 0.0977zm-5.693-3.9992c0.00908-0.0354 0-0.0799-0.02656-0.1065l-1.339-1.339c0.88677-0.97546 1.6494-2.1637 2.2169-3.4761 0.7892-1.8178 1.2237-3.884 1.2592-5.9767l0.00908-0.088761-1.5784 0.00908-0.00908 0.079908c-0.06197 3.2544-1.1705 6.2871-3.015 8.3355l-1.2681-1.2681c-0.01816-0.01816-0.04427-0.02656-0.07083-0.02656h-0.02656c-0.03541 0.00908-0.06197 0.03541-0.07083 0.07083l-1.4011 5.2851 5.2496-1.4277c0.03541-0.0091 0.06197-0.0354 0.07083-0.0708m-2.1e-4 5.6041c-0.00908-0.0354-0.03541-0.062-0.07082-0.0709l-5.2496-1.3922 1.4188 5.2408c0.00908 0.0354 0.03542 0.0619 0.06198 0.0708h0.03541c0.02656 0 0.05312-0.0091 0.07083-0.0266l1.3479-1.3478c0.73599 0.7537 1.5518 1.4188 2.474 1.9508 1.6937 0.9755 3.6269 1.4898 5.5955 1.4898h0.0354c3.077-0.0091 5.9856-1.2947 8.0695-3.4584l1.3301 1.3213c0.0182 0.0182 0.0443 0.0266 0.0708 0.0266h0.0266c0.0354-0.0182 0.062-0.0355 0.0799-0.0799l1.3833-5.2497-5.2407 1.4277c-0.0354 0.0091-0.062 0.0354-0.0708 0.0708-0.0091 0.0355 0 0.0709 0.0181 0.0977l1.2858 1.268c-1.8001 1.8799-4.3096 2.9884-6.961 2.9973h-0.0266c-2.6691 0-5.152-1.0996-6.961-2.9795l1.2503-1.2504c0.02656-0.0265 0.03542-0.0708 0.02656-0.1064"/>
 </g>
</svg>
