<?xml version="1.0" encoding="UTF-8"?>
<svg width="24" height="24" version="1.1" viewBox="0 0 24 24" xmlns="http://www.w3.org/2000/svg">
 <style>path{fill:#000}@media (prefers-color-scheme:dark){path{fill:#fff}}</style>
 <path d="m11.048 1.8413c-5.4182 0.22397-9.7434 4.6764-9.7434 10.152 0 5.61 4.5487 10.165 10.168 10.165 3.8182 0 7.1402-2.1142 8.8818-5.2246-1.1969 0.59307-2.5266 0.9552-3.951 0.9552-4.9363 0-8.9352-3.9954-8.9352-8.9352 0-2.9116 1.4195-5.4823 3.5803-7.1128zm4.4297 0.43418-0.99861 2.7019-2.7042 0.99973 2.7042 0.98748 0.99861 2.7108 0.98859-2.7108 2.7086-0.98748-2.7086-0.99973zm4.8762 6.6541-0.63234 1.7178-1.7111 0.63234 1.7111 0.62566 0.63234 1.7189 0.62678-1.7189 1.7156-0.62566-1.7156-0.63234z" stroke-width=".57"/>
</svg>
