<?xml version="1.0" encoding="UTF-8"?>
<svg width="24" height="24" version="1.1" viewBox="0 0 24 24" xmlns="http://www.w3.org/2000/svg">
 <style>path{fill:#000}@media (prefers-color-scheme:dark){path{fill:#fff}}</style>
 <path d="m14.493 13.419c-0.03616 0.01356-0.07233 0.02565-0.10702 0.03616 0.0016-0.0045 0.0076-0.01209 0.01209-0.01661 0.03164-6e-3 0.06182-0.01503 0.09493-0.01955m3.6812-1.7585c2.2709-3.5803 0.62542-7.0747 0.55004-7.2253 0 0-0.2275-0.43699-0.66147-0.24713-0.45511 0.1974-0.29836 0.64342-0.29836 0.64342 9e-3 0.034661 1.1376 3.4974-1.2267 6.2881-0.50472 0.5983-1.0819 0.94932-1.6741 1.1468 0 0 0.16726-5.0117-5.949-5.3914-4.2327-0.26219-6.4492 3.0032-6.5412 3.1402 0 0-0.25165 0.39329 0.079855 0.67051 0.35562 0.29689 0.69616 0.01514 0.74287-0.03458 0.02562-0.02712 2.4878-2.7395 6.0666-2.0901 0.00302 0 0.00602 0 0.010544 0.00151 0.66448 0.12054 1.1995 0.37973 1.6335 0.71575-4.1514 2.8027-1.6576 7.8672-1.6576 7.8672 1.5189 2.9911 4.2779 3.7913 5.4442 4.0052 0.30593 0.05572 0.50178 0.07233 0.53648 0.0738 0 0 0.45658 0.06182 0.55456-0.38572 0.08431-0.39329-0.14918-0.57705-0.41442-0.64339-0.03616-0.01051-3.6089-0.77301-4.837-4.1951-0.24716-0.69311-0.27575-1.3305-0.1763-1.9137 0 0 4.7315 2.4305 7.8175-2.4261"/>
</svg>
