<?xml version="1.0" encoding="UTF-8"?>
<svg width="24" height="24" version="1.1" viewBox="0 0 24 24" xmlns="http://www.w3.org/2000/svg">
 <style>path{fill:#000}@media (prefers-color-scheme:dark){path{fill:#fff}}</style>
 <path d="m15.561 17.103c0.14105-0.05268 0.2821-0.10536 0.41126-0.15805 0.13426-0.05608 0.26511-0.11216 0.38917-0.17674 0.25831-0.12576 0.50983-0.2855 0.75624-0.46904 0.24982-0.18354 0.48774-0.39087 0.72565-0.63219 0.22432-0.22942 0.43335-0.47754 0.65768-0.75964 0.3042-0.41636 0.55401-0.86331 0.75454-1.329 0.19543-0.46054 0.33988-0.94658 0.43505-1.4479 0.04419-0.23452 0.08157-0.48944 0.10027-0.75794 0.02209-0.25661 0.02889-0.51832 0.02889-0.78174-0.008497-0.53872-0.076474-1.0791-0.21073-1.6213-0.12066-0.50983-0.2991-1.0112-0.52512-1.4887-0.22262-0.48774-0.50133-0.95168-0.83442-1.3969-0.32969-0.42995-0.69167-0.83952-1.0876-1.1862-0.096868-0.093468-0.19543-0.18184-0.2991-0.26001-0.08837-0.074775-0.18864-0.14785-0.2838-0.22602-0.23792-0.16484-0.47584-0.32969-0.71206-0.49623-0.02209-0.010197-0.03909-0.020393-0.05438-0.032289-0.11046-0.062879-0.21583-0.12746-0.32459-0.18864-0.04249-0.022093-0.08327-0.039087-0.14615-0.073075-0.03399-0.016994-0.06798-0.033988-0.10027-0.050983-0.02379-0.010197-0.04588-0.023792-0.06458-0.033988-0.03059-0.015295-0.05778-0.03059-0.10706-0.062879-0.48604-0.24302-0.99756-0.40616-1.487-0.55571-0.22772-0.054382-0.45884-0.10876-0.69167-0.15125-0.21073-0.045884-0.42316-0.078174-0.63728-0.10876-0.66278-0.086671-1.3459-0.10536-1.9917-0.064578-0.17844 0.010197-0.34668 0.032289-0.52172 0.056081-0.18014 0.025491-0.36028 0.05948-0.54382 0.10027-0.19543 0.044185-0.39257 0.095168-0.588 0.14785-0.037387 0.0085-0.078174 0.022092-0.11386 0.02889-0.27021 0.079873-0.49453 0.15465-0.68657 0.24642-0.10536 0.047584-0.20053 0.09007-0.2991 0.14955-0.078174 0.047584-0.15295 0.095168-0.22093 0.14785-0.074775 0.05948-0.14445 0.11726-0.20393 0.18354-0.050983 0.05948-0.095168 0.12576-0.13425 0.20393-0.033988 0.083272-0.050983 0.16994-0.045884 0.23962 0.0017 0.098567 0.033989 0.19034 0.084971 0.25151 0.049283 0.067977 0.11216 0.11556 0.18014 0.14105 0.11386 0.042486 0.16145 0.03059 0.26171 0.015295 0.047584-0.016994 0.096867-0.037387 0.14445-0.056081 0.076474-0.032289 0.14955-0.05948 0.26171-0.10197 0.025491-0.0085 0.047584-0.015295 0.074775-0.023792 0.08837-0.032289 0.17504-0.066277 0.27191-0.095168 0.19373-0.064578 0.38747-0.12066 0.57611-0.16994 0.19543-0.047584 0.39257-0.091769 0.5897-0.12576 0.20223-0.033988 0.39936-0.062879 0.6033-0.086671 0.36538-0.039087 0.76474-0.054382 1.1505-0.040786 0.37387 0.013595 0.73925 0.052682 1.0944 0.11386 0.38407 0.067977 0.77324 0.16824 1.1505 0.2923 0.38237 0.12746 0.75285 0.27871 1.0995 0.45375 0.34668 0.17504 0.67807 0.37557 0.97207 0.5795 0.31779 0.22432 0.61519 0.47244 0.8854 0.74265 0.22432 0.22602 0.43335 0.46054 0.61689 0.70186 0.17844 0.23792 0.35008 0.50133 0.50813 0.77324 0.08497 0.15805 0.16654 0.31269 0.24132 0.47584 0.06968 0.14275 0.13426 0.2838 0.19374 0.42826 0.11216 0.2821 0.20733 0.56931 0.2787 0.85481 0.06628 0.3025 0.12236 0.5982 0.13935 0.8854 0.02379 0.27871 0.02719 0.55571 0.0068 0.83102-0.01699 0.27021-0.05778 0.54552-0.12066 0.82762-0.06118 0.27701-0.13935 0.55911-0.24302 0.84631-0.12576 0.3008-0.25491 0.56421-0.40106 0.80043-0.14105 0.23622-0.3008 0.46394-0.46734 0.66618-0.16654 0.19373-0.35178 0.37897-0.56081 0.55061-0.20053 0.16654-0.42826 0.32119-0.66957 0.46054-0.22262 0.12406-0.46054 0.22432-0.69506 0.3008-0.12576 0.04249-0.25152 0.07478-0.38237 0.10706-0.12236 0.02549-0.25661 0.04589-0.39087 0.05778-0.23792 0.03059-0.48774 0.03909-0.72735 0.0102-0.10876-0.0136-0.21243-0.02719-0.31779-0.05608-0.10706-0.01869-0.21243-0.05438-0.311-0.09177-0.07307-0.03399-0.15125-0.06628-0.22602-0.10876-0.07307-0.03739-0.14105-0.07647-0.21413-0.12576-0.13426-0.08157-0.25152-0.17504-0.35348-0.27701-0.08327-0.07987-0.15805-0.16824-0.21413-0.25661 0.311 0.03739 0.5863 0.0153 0.86841-0.04249 0.19883-0.04079 0.38237-0.09177 0.56081-0.16654 0.18014-0.07138 0.36028-0.16824 0.53532-0.27701 0.18864-0.12406 0.36708-0.25831 0.52002-0.40446 0.07307-0.06968 0.14785-0.14615 0.22092-0.22092 0.07987-0.07817 0.14785-0.16994 0.21583-0.25831 0.15805-0.20053 0.2872-0.40956 0.39257-0.61689 0.05098-0.08837 0.09517-0.17844 0.12746-0.26341 0.03399-0.06798 0.05948-0.13935 0.09857-0.24642 0.02379-0.07647 0.05098-0.14615 0.07477-0.22942 0.03739-0.13256 0.06798-0.26341 0.09347-0.39087 0.0153-0.07647 0.03059-0.15805 0.04079-0.23452 0.02209-0.13256 0.03399-0.25831 0.03909-0.37897 0.02889-0.44695-0.0068-0.8905-0.10536-1.3306-0.098575-0.44525-0.25152-0.8735-0.46735-1.2661-0.20903-0.39767-0.47414-0.76814-0.78513-1.1097-0.01699-0.016994-0.03399-0.032289-0.04589-0.049283-0.09177-0.081572-0.16144-0.15295-0.22942-0.23962-0.02039-0.018694-0.03739-0.039087-0.05438-0.05948-0.03739-0.027191-0.07307-0.054382-0.11216-0.076474-0.01699-0.0085-0.03569-0.020393-0.05268-0.03059-1.0842-1.0231-2.2483-1.3001-3.3496-1.4479-0.53872-0.061179-1.0859-0.047584-1.6365 0.022092-0.54212 0.083272-1.0774 0.21923-1.5958 0.42316-0.12406 0.047584-0.25152 0.10027-0.38067 0.15805-0.12746 0.056081-0.25661 0.12236-0.38747 0.18864-0.26851 0.14105-0.49963 0.27871-0.71546 0.42486-0.47584 0.32119-0.91089 0.69337-1.2984 1.0995-0.38407 0.41296-0.71886 0.86671-1.0078 1.3442-0.294 0.48264-0.54382 1.0197-0.73755 1.5924-0.12746 0.38577-0.23282 0.80383-0.31099 1.2474-0.023792 0.12576-0.045884 0.24982-0.062879 0.42146-0.0034 0.04419-0.0085 0.08837-0.015295 0.13595-0.0017 0.02209-0.0017 0.04079-0.0017 0.06118-0.015295 0.16314-0.025491 0.32459-0.037387 0.48943 0 0.03399 0 0.06458-0.0051 0.09857-0.0068 0.07647-0.015295 0.15805-0.020393 0.23112-0.0051 0.07138-0.0051 0.13086 0 0.20053 0.0017 0.09007 0.010197 0.17504 0.016994 0.26341 0.0017 0.05608 0.0034 0.11216 0.0085 0.16824 0 0.03229 0.0034 0.05948 0 0.11386 0.02889 0.50983 0.12576 0.98906 0.26001 1.572 0.10197 0.34668 0.19713 0.65938 0.31269 0.95338 0.11216 0.3059 0.24302 0.5999 0.38067 0.8854 0.078174 0.15805 0.16145 0.31779 0.26341 0.50303 0.035688 0.06288 0.069676 0.12236 0.10027 0.17674 0.049283 0.08327 0.098567 0.16484 0.14955 0.23792 0.079873 0.13426 0.16484 0.26171 0.25152 0.39257 0.071376 0.10876 0.15635 0.21923 0.23962 0.31609 0.11386 0.15125 0.23962 0.2872 0.35858 0.42316 0.018694 0.0153 0.032289 0.03229 0.049283 0.04928 0.081572 0.08667 0.15465 0.16994 0.22942 0.24302 0.071376 0.07477 0.14105 0.14615 0.20903 0.20563 0.052682 0.05098 0.10536 0.10027 0.15635 0.15125 0.056081 0.05098 0.11046 0.09857 0.16314 0.14445 0.03059 0.02719 0.064578 0.04928 0.10197 0.07477 0.011896 0.01699 0.02889 0.03229 0.044185 0.04588 0.056081 0.03739 0.10536 0.07817 0.16484 0.11726 0.045884 0.03569 0.098567 0.06968 0.15295 0.10197 0.054382 0.03399 0.11046 0.06288 0.17164 0.09007 0.096867 0.05098 0.20053 0.09347 0.2957 0.12406 0.057781 0.0119 0.11046 0.02209 0.16484 0.03059 0.025491 0.0051 0.066278 0.0085 0.10197 0.0085 0.018694-0.0034 0.040786-0.0034 0.061179-0.0034 0.049283-0.0051 0.096867-0.01869 0.17844-0.04419 0.02889-0.01699 0.05778-0.03399 0.11726-0.07307 0.02889-0.03059 0.061179-0.06118 0.091769-0.11556 0.027191-0.04079 0.042486-0.09007 0.061179-0.16994 0-0.06628-0.0085-0.11556-0.023792-0.17844-0.015295-0.02889-0.033988-0.05948-0.045884-0.09007 0-0.0068-0.013595-0.02379-0.016994-0.02379 0 0 0 0.0017 0.0034 0.0051-0.025491-0.02719-0.052682-0.05948-0.076474-0.08667-0.027191-0.01869-0.052682-0.04249-0.076474-0.06118l-0.3059-0.23962c-0.054382-0.056081-0.12066-0.10706-0.17674-0.16484-0.074775-0.062878-0.14955-0.12916-0.22262-0.20053-0.073075-0.066277-0.14275-0.13765-0.21243-0.20563-0.13935-0.14785-0.27701-0.2974-0.40786-0.44525-0.13595-0.16994-0.27871-0.34328-0.40786-0.52682-0.37727-0.51832-0.68827-1.0825-0.93129-1.6722-0.26341-0.64068-0.44355-1.3171-0.53362-2.0155-0.054382-0.37897-0.071376-0.72735-0.066278-1.0621 0-0.34838 0.016994-0.69167 0.069676-1.0231 0.047584-0.34158 0.12406-0.67977 0.22093-0.99756 0.096868-0.32119 0.22093-0.63898 0.36878-0.94998 0.14445-0.3025 0.31949-0.6033 0.50983-0.8956 0.05778-0.083272 0.11726-0.16654 0.17504-0.25151 0.056081-0.079873 0.11896-0.15805 0.17844-0.23792 0.10706-0.13765 0.21753-0.26681 0.33139-0.39087 0.21753-0.23112 0.45375-0.45205 0.70526-0.63898 0.24132-0.18864 0.50473-0.36028 0.79023-0.51663 0.26001-0.14105 0.54552-0.26681 0.86161-0.37387 0.3008-0.10027 0.62539-0.18014 0.94488-0.23622 0.2923-0.035688 0.55741-0.056081 0.81402-0.056081h0.078174c0.26001 0.0051 0.52852 0.025491 0.80043 0.078174 0.26001 0.044185 0.51832 0.11726 0.77154 0.21073 0.25491 0.093468 0.49283 0.20393 0.71546 0.33479 0.22942 0.13935 0.43675 0.294 0.62709 0.46564 0.09517 0.086671 0.18354 0.17674 0.27361 0.27531 0.08497 0.095168 0.16314 0.19204 0.24302 0.3008 0.16144 0.20903 0.2838 0.42656 0.38407 0.63728 0.04418 0.10027 0.07647 0.20053 0.10876 0.2991 0.03229 0.10536 0.05268 0.20903 0.06798 0.31269 0.0119 0.096867 0.02039 0.19034 0.02719 0.28041 0.0051 0.08667 0.0051 0.16994 0 0.25321-0.0102 0.17164-0.03569 0.32799-0.07647 0.47414-0.03399 0.12746-0.08327 0.25321-0.16484 0.37217-0.01699 0.03229-0.03569 0.06288-0.06288 0.09007-0.11726-0.26681-0.27701-0.51833-0.46735-0.73755-0.24982-0.2889-0.56761-0.53872-0.92619-0.72056-0.38067-0.19543-0.79533-0.32969-1.2423-0.38917-0.18864-0.03059-0.37727-0.042486-0.57101-0.042486h-0.08497c-0.10366 0.0017-0.20053 0.0068-0.31269 0.016994-0.10537 0.010197-0.21243 0.033989-0.32119 0.049284-0.20903 0.037387-0.42316 0.093468-0.64068 0.16994-0.20223 0.066278-0.40786 0.15125-0.605 0.25152-0.39257 0.20053-0.74945 0.45715-1.0757 0.75794-0.32289 0.294-0.61009 0.64408-0.85651 1.0417-0.24302 0.38747-0.43165 0.80383-0.57441 1.2797-0.020393 0.11556-0.040786 0.21073-0.069676 0.26171-0.013595 0.04588-0.032289 0.09007-0.045884 0.13256-0.0034 0.03909-0.0068 0.07308-0.011896 0.16484 0.0034 0.0085 0.0034 0.0153 0.0051 0.02379-0.35008 1.4581-0.0051 2.6052 0.41636 3.6283 0.21923 0.49453 0.49623 0.95848 0.82082 1.3765 0.32289 0.42656 0.71036 0.82422 1.1454 1.1777 0.16654 0.13426 0.34158 0.26171 0.51663 0.38577 0.2855 0.19034 0.5812 0.36368 0.8871 0.51662 0.19713 0.09517 0.39087 0.18354 0.5999 0.26681 0.35858 0.13765 0.68657 0.23452 1.0027 0.311 0.54891 0.13425 1.1165 0.20733 1.679 0.21753 0.05778 0.0017 0.11556 0.0017 0.17504 0.0051 0.52342 0 1.0451-0.05608 1.5533-0.15465 0.43675-0.08497 0.8752-0.20903 1.3001-0.36368 0.11046-0.04079 0.22602-0.09177 0.33139-0.13426 0.01699-0.0068 0.04079-0.01529 0.07307-0.03229 0.3008-0.14105 0.6016-0.2838 0.9024-0.42486 0.05778-0.03399 0.10706-0.06458 0.15805-0.10027 0.07308-0.04249 0.14275-0.09007 0.21413-0.13595 0.05098-0.03569 0.10027-0.06628 0.15125-0.10027 0.02889-0.01699 0.05778-0.03739 0.10536-0.06458 0.42486-0.27701 0.79703-0.5999 1.2304-1.0044 0.26341-0.27361 0.50303-0.54552 0.71886-0.81063 0.21073-0.26171 0.41806-0.54042 0.6033-0.83102 0.13256-0.20053 0.25831-0.40956 0.37387-0.61349 0.06628-0.11556 0.12236-0.22602 0.18864-0.34838 0.0085-0.01869 0.02039-0.03909 0.02889-0.05778 0.02039-0.04249 0.04419-0.09177 0.05778-0.11896 0.03569-0.07138 0.06968-0.14785 0.09687-0.21413 0.02209-0.05778 0.04758-0.10706 0.08667-0.20393 0.02039-0.06798 0.05268-0.14105 0.07478-0.21243 0.06968-0.19373 0.13426-0.38917 0.18864-0.5846 0.03909-0.13935 0.07477-0.27361 0.12576-0.46054 0.0051-0.02549 0.01359-0.05438 0.01529-0.07478 0.0085-0.04249 0.01869-0.08497 0.03059-0.12916 0.02889-0.15805 0.06118-0.31439 0.07647-0.46904 0.0102-0.06288 0.0153-0.13086 0.01869-0.20563v-0.18524c0-0.08327-0.0085-0.16314-0.02549-0.24982-0.0085-0.06458-0.01869-0.12406-0.04418-0.19204-0.017-0.06628-0.03909-0.12576-0.08157-0.19373-0.02379-0.04249-0.06458-0.09687-0.11556-0.14785-0.06628-0.06118-0.13595-0.10197-0.20223-0.11556-0.04079-0.0051-0.07477-0.0085-0.10876-0.0102-0.04758 0-0.08837 0.0017-0.15295 0.02549-0.07307 0.03229-0.14105 0.08157-0.19204 0.14785-0.04079 0.06628-0.07138 0.14275-0.07477 0.20903-0.09177 0.73075-0.2787 1.4445-0.54722 2.126-0.27531 0.68827-0.63388 1.3306-1.0689 1.9034-0.22432 0.3025-0.46734 0.5778-0.71376 0.82422-0.23962 0.23622-0.50133 0.47074-0.78853 0.69167-0.15125 0.12236-0.3093 0.23112-0.46904 0.33989-0.14275 0.10366-0.294 0.19204-0.44695 0.2787-0.2991 0.17674-0.61519 0.32289-0.93298 0.45884-0.32459 0.12576-0.65938 0.22942-1.001 0.3093-0.33819 0.07647-0.67637 0.12746-1.0044 0.14785-0.17334 0.01869-0.34498 0.02209-0.51153 0.02209-0.06628 0-0.13765 0-0.20393-0.0017-0.12576-0.0017-0.25152-0.0119-0.36878-0.02209-0.12066-0.0085-0.24472-0.01869-0.36198-0.03739-0.24642-0.03059-0.47244-0.06458-0.68317-0.11386-0.31439-0.07817-0.61519-0.17334-0.9007-0.2906-0.3025-0.12234-0.58461-0.27019-0.83442-0.42824-0.27191-0.16994-0.52002-0.36028-0.74265-0.55231-0.23622-0.20903-0.47074-0.44865-0.67467-0.70016-0.18864-0.24812-0.35518-0.49623-0.49113-0.74095-0.14275-0.24472-0.25661-0.49453-0.34328-0.73925-0.091769-0.24642-0.15465-0.50813-0.20563-0.77664-0.045884-0.26341-0.061179-0.52682-0.05948-0.79193 0.0068-0.24982 0.035688-0.50473 0.084971-0.75284 0.02889-0.13426 0.064578-0.25831 0.10197-0.38577 0.040786-0.12576 0.086671-0.24812 0.14105-0.36708 0.11386-0.25661 0.23112-0.46394 0.36708-0.64238 0.062879-0.08327 0.12236-0.17164 0.19373-0.24472 0.079873-0.07987 0.15805-0.15635 0.24132-0.22092 0.069676-0.05268 0.13935-0.10197 0.20733-0.14445 0.066278-0.04249 0.13425-0.07987 0.20053-0.11726 0.13595-0.07138 0.27361-0.12236 0.40956-0.16314 0.10027-0.03059 0.20733-0.04928 0.34328-0.05778-0.12576 0.21413-0.22602 0.43675-0.2957 0.67127-0.064578 0.19543-0.10027 0.39767-0.11726 0.6033-0.020393 0.19543-0.022092 0.39597-0.0051 0.5948 0.032289 0.41636 0.13425 0.83102 0.31439 1.2287 0.084971 0.19713 0.18184 0.38747 0.3025 0.57441 0.052682 0.08327 0.11386 0.16484 0.17504 0.24472 0.064578 0.08667 0.13255 0.16994 0.20563 0.24982 0.15635 0.17504 0.2974 0.3093 0.43845 0.42656 0.16824 0.14275 0.33479 0.27021 0.50133 0.38067 0.36878 0.23282 0.76984 0.41806 1.193 0.54722 0.41806 0.12746 0.85991 0.20053 1.3052 0.21583 0.05948 0.0034 0.12066 0.0034 0.17674 0.0051 0.40106 0 0.79873-0.04928 1.1828-0.13765 0.27701-0.06288 0.44525-0.11726 0.61009-0.17844"/>
</svg>
