<?xml version="1.0" encoding="UTF-8"?>
<svg width="24" height="24" version="1.1" viewBox="0 0 24 24" xmlns="http://www.w3.org/2000/svg">
 <style>path{fill:#000}@media (prefers-color-scheme:dark){path{fill:#fff}}</style>
 <path d="m14.951 9.5531 0.0146 0.85599-0.5955 0.7168-0.4061 0.2912-0.8171 0.0502-1.534 0.0453c-0.6165 0.0178-0.665 0.1553-0.6666 0.1602-0.0227 0.0825 0.1666 0.2864 0.3527 0.4094l0.0421 0.0307 0.0129 0.0485c0.1683 0.7298 0.5486 1.7864 0.8608 1.8608 1.1424 0.2621 2.1941-0.1553 3.1262-1.2427 1.3931-1.6196 0.8025-3.6374 0.5566-4.2895zm-2.097 4.8041c-0.2314 0-0.4644-0.0275-0.699-0.0809-0.5566-0.1295-0.945-1.6003-1.0453-2.0065-0.144-0.1019-0.4935-0.3899-0.4142-0.6698 0.0647-0.2201 0.356-0.3334 0.9109-0.3495l1.5291-0.0437 0.7379-0.0453 0.3317-0.2379 0.4983-0.6051-0.0145-0.86086 1.2863-1.4466 0.0809 0.18446c0.5664 1.2572 0.7702 3.2588-0.5145 4.7522-0.7993 0.9304-1.7184 1.4094-2.6876 1.4094m3.0848-6.1097c0.4256 0.94819 0.8803 3.0145-0.4967 4.618-1.3786 1.6002-2.7248 1.4061-3.2572 1.2799-0.534-0.1198-0.9579-1.9531-0.9579-1.9531s-1.144-0.7669 0.3835-0.8106l1.5275-0.0469 0.7799-0.0453 0.377-0.2703 0.5404-0.6553-0.0146-0.85917zm-4.2715 2.6698c-0.1942 0-0.3414 0.0275-0.4061 0.0939-0.8075 0.8074-0.9531 1.8785-0.4337 3.1876 0.7767 1.9562 2.9044 2.4837 3.6261 2.6067l-0.4887-1.2993-0.7847-0.4159-0.3528-0.8495-0.0614-0.4854 0.364-0.7039 0.7265-1.2879c0.2767-0.4952 0.1974-0.6084 0.1861-0.6165-0.0647-0.0712-0.3511-0.0178-0.5647 0.0793l-0.0453 0.0178-0.0453-0.0146c-0.5275-0.1586-1.2572-0.3123-1.72-0.3123m3.1844 6.2021-0.2136-0.0227c-1.4207-0.1666-3.3365-0.9951-4.0533-2.7992-0.5534-1.3964-0.3835-2.5954 0.4903-3.4708 0.3964-0.3964 1.9303 0.021 2.3429 0.1424 0.1651-0.068 0.6165-0.2201 0.8172 0.0032 0.1537 0.1683 0.1051 0.4628-0.1538 0.9207l-0.7216 1.2815-0.3252 0.6278 0.0485 0.3884 0.301 0.7151 0.7912 0.4175zm-0.1978-0.1537c-1.076-0.1214-3.1779-0.78-3.9481-2.7184-0.76693-1.9368 0.0842-2.9497 0.4612-3.33 0.3786-0.377 2.2572 0.1909 2.2572 0.1909s1.2686-0.5614 0.5453 0.7201l-0.7233 1.2831-0.3446 0.6667 0.055 0.4465 0.3252 0.7735 0.7896 0.4158zm-4.9215-5.54 0.9433 0.1327 0.4677 0.1925 0.4546 0.6489 0.8075 1.241c0.3106 0.4806 0.4579 0.4758 0.4854 0.4693 0.1035-0.0275 0.1861-0.3107 0.2039-0.4968l0.0048-0.0534 0.0388-0.0339c0.5777-0.5033 1.3495-1.3414 1.2605-1.6327-0.3285-1.0663-1.2346-1.7265-2.6892-1.953-2.1601-0.33817-3.6973 1.1391-4.1795 1.678l1.4304 0.2491zm3.1391 2.9481c-0.2072 0-0.4272-0.1925-0.6861-0.5906l-0.8042-1.2362-0.4077-0.5857-0.3819-0.1554-0.8058-0.11-0.77668 0.4434-1.9627-0.3398 0.1343-0.1699c0.8592-1.0938 2.5727-2.2605 4.5678-1.9449 1.542 0.23947 2.5436 0.97734 2.898 2.1326 0.1666 0.5307-0.9773 1.5889-1.2993 1.8737-0.0227 0.1699-0.1068 0.6003-0.3932 0.6731-0.0259 0.0049-0.0534 0.0097-0.0825 0.0097m-5.5876-2.6656c0.64884-0.8252 2.2977-2.2329 4.4449-1.8964 2.1455 0.33656 2.6407 1.5437 2.796 2.0437 0.1537 0.5016-1.3009 1.7701-1.3009 1.7701s-0.123 1.3236-0.9288 0.0874l-0.8042-1.2378-0.4304-0.6197-0.4352-0.1748-0.86733-0.1197-0.77344 0.4433zm7.9606 0.7115-1.8964 1.2443c-0.4255 0.2297-0.8883 0.5016-1.1763 0.6909 0.0841-0.0227 0.1926-0.0583 0.322-0.1036 1.2945-0.4433 2.2168-1.1812 2.7507-1.8316m-3.4238 2.2766c-0.102 0-0.1473-0.0372-0.1732-0.0987-0.0501-0.1084-0.1084-0.2492 1.5647-1.1569l2.8705-1.8802-0.246 0.4547c-0.419 0.7718-1.5226 1.8883-3.2588 2.4853-0.4045 0.1376-0.6278 0.1958-0.7572 0.1958m3.9005-2.745c-0.4547 0.8413-1.5776 1.8753-3.186 2.4254-2.0905 0.7136 0.7395-0.8219 0.7395-0.8219zm-4.7049-1.2189c-0.021 0.0873-0.0436 0.199-0.0744 0.3462-0.2459 1.2993-0.0291 2.4401 0.3026 3.2054l-0.1845-2.2006c0.0049-0.4821-0.0129-1.0193-0.0437-1.351m0.5809 4.6487-0.2799-0.4143c-0.4951-0.7329-0.9579-2.2038-0.6294-3.9367 0.1375-0.7298 0.2297-0.8366 0.3673-0.8268 0.1181 0.0129 0.2799 0.0275 0.267 1.8721zm-0.172-0.4866c-0.5388-0.7977-0.9142-2.2378-0.61-3.8413 0.3948-2.0824 0.377 1.021 0.377 1.021zm2e-3 -4.6461 2.0565 0.932c0.4288 0.2411 0.911 0.4903 1.2314 0.6311-0.0664-0.0583-0.1489-0.1263-0.2524-0.2088-1.0453-0.8462-2.1763-1.2394-3.0355-1.3543m3.6374 1.9417c-0.1667 0-0.576-0.1505-1.699-0.7751l-3.1633-1.4368 0.5404-0.02427c0.9159-0.04369 2.4757 0.31069 3.8834 1.4449 0.5809 0.4677 0.6521 0.5955 0.5679 0.7233-0.0226 0.0324-0.0469 0.068-0.1294 0.068m-4.3165-2.1071c0.9935-0.0469 2.4918 0.3657 3.796 1.4175 1.6973 1.3672-1.1149-0.2007-1.1149-0.2007zm1.3129 1.0971-0.4822 2.2928 2.5937-1.0226zm-0.8366 2.7151 0.657-3.1261 2.8753 1.7313zm0.7463-2.9211-0.568 2.7103 3.063-1.2087zm-1.3786-5.4966c-1.5404 0-3.1375 0.48703-4.4966 1.4368-2.5501 1.788-3.5452 4.6762-2.7281 7.9253 0.05178 0.2038 0.28316 0.3284 0.48866 0.2831 0.11002-0.0242 0.19902-0.089 0.25727-0.1796 0.05016-0.0841 0.06472-0.1812 0.04207-0.275-0.74108-2.9449 0.14239-5.5484 2.4239-7.1454 2.0679-1.4466 4.8558-1.6876 6.7862-0.5906 1.1989 0.68121 1.8866 1.6067 1.9837 2.673 0.1084 1.1683-0.5081 2.2362-1.1666 2.7799-0.0518 0.042-1.254 0.9676-2.5889 1.0824-0.1117 0.0114-0.212 0.0615-0.28 0.1441-0.0647 0.076-0.0954 0.1699-0.0857 0.2669 0.0194 0.212 0.2168 0.3625 0.4401 0.3431 1.6084-0.1392 2.987-1.2168 3.0452-1.2621 0.9919-0.8172 1.5566-2.1618 1.4401-3.4174-0.0842-0.91907-0.5631-2.2329-2.3705-3.2572-0.9498-0.54043-2.0533-0.80741-3.1908-0.80741m-6.8331 9.9155c-0.30581 0-0.5728-0.2006-0.64237-0.4886-0.84463-3.3607 0.18446-6.3493 2.8284-8.202 2.4433-1.7087 5.6422-1.9676 7.9674-0.64561 1.9028 1.0825 2.4125 2.4789 2.5031 3.4611 0.123 1.3398-0.4822 2.7702-1.5388 3.6439-0.0631 0.0486-1.4999 1.1764-3.1859 1.3204-0.3593 0.0275-0.6877-0.2266-0.7217-0.5777-0.0146-0.1666 0.0356-0.3301 0.144-0.4579 0.1149-0.1375 0.2783-0.2233 0.4595-0.2378 1.2589-0.1101 2.3996-0.9887 2.4482-1.0275 0.6019-0.4968 1.1682-1.4806 1.0679-2.5501-0.0906-0.98055-0.7298-1.8349-1.8527-2.4724-1.843-1.0501-4.5209-0.81389-6.5062 0.57765-2.1876 1.5323-3.0323 4.0355-2.3236 6.8687 0.04207 0.1602 0.0178 0.3301-0.07281 0.4725-0.09223 0.1521-0.2411 0.2589-0.41908 0.2994-0.05178 0.0097-0.10356 0.0161-0.15534 0.0161m0.00178-0.13c-0.24109 0-0.46115-0.157-0.5194-0.39-0.83007-3.3057 0.18122-6.2441 2.7782-8.0661 2.4012-1.6763 5.5467-1.9352 7.8298-0.6359 1.8527 1.0534 2.3478 2.4077 2.4352 3.3559 0.1198 1.3025-0.466 2.6892-1.4918 3.5339-0.0664 0.0534-1.466 1.152-3.1148 1.2928-0.2978 0.0243-0.5518-0.1828-0.5793-0.4628-0.0259-0.2815 0.1909-0.5291 0.4838-0.555 1.3203-0.1116 2.5048-1.0404 2.5177-1.0517 0.6278-0.5162 1.2217-1.5485 1.1197-2.6666-0.0954-1.0226-0.7589-1.9109-1.919-2.5744-1.8883-1.0712-4.6212-0.83169-6.6487 0.58736-2.2329 1.563-3.097 4.118-2.3721 7.003 0.06796 0.2767-0.10679 0.5502-0.39481 0.6149-0.04207 0.0113-0.08414 0.0146-0.12459 0.0146m8.2388-4.8746c-0.1407 0-0.2799 0.0695-0.3527 0.1941-0.9272 1.5598-0.6569 2.809-0.5938 3.042 0.2556 1.2313 1.1925 2.3624 2.3882 2.8931 1.2524 0.555 2.7006 0.4482 4.1569-0.3268 2.275-1.2071 3.5872-3.8802 3.2652-6.6471-0.3495-2.9983-2.4772-5.2636-5.8461-6.215-0.2119-0.05987-0.4401 0.05339-0.5048 0.25727-0.0275 0.09223-0.0178 0.19255 0.0291 0.27669 0.0486 0.09385 0.1359 0.16181 0.2427 0.19093 3.042 0.86082 4.9627 2.8899 5.2749 5.571 0.2832 2.4336-0.8931 4.8607-2.8575 5.9076-1.2168 0.6456-2.3963 0.7508-3.4141 0.2993-1.1116-0.4935-1.775-1.5371-1.9417-2.3591-0.0016-0.0097-0.0048-0.0227-0.0097-0.0356-0.0032-0.0097-0.3139-1.0825 0.5162-2.4837 0.0518-0.0858 0.0647-0.1861 0.0388-0.28-0.0275-0.1003-0.0955-0.1828-0.1893-0.2346-0.0631-0.034-0.1343-0.0501-0.2023-0.0501m3.1116 6.7425c-0.6197 0-1.2168-0.1263-1.775-0.3738-1.2702-0.5647-2.2653-1.7702-2.5372-3.0711-0.0663-0.2443-0.3559-1.5841 0.623-3.2362 0.1796-0.3042 0.5857-0.4109 0.9029-0.241 0.1569 0.0857 0.2702 0.2232 0.3187 0.3948 0.0437 0.1634 0.0211 0.3333-0.0647 0.4805-0.7605 1.2815-0.4967 2.2686-0.4919 2.2783 0.0049 0.0162 0.0081 0.0356 0.0146 0.0582 0.1521 0.754 0.7653 1.7184 1.7928 2.1731 0.9385 0.4175 2.0388 0.3139 3.1844-0.2929 1.8737-0.9935 2.9934-3.317 2.7232-5.6454-0.2994-2.5695-2.1537-4.5209-5.0905-5.351-0.1731-0.04692-0.3155-0.16018-0.4013-0.31714-0.0792-0.14886-0.0954-0.31876-0.0453-0.47895 0.1036-0.33655 0.4758-0.53072 0.822-0.42878 3.4756 0.98055 5.6762 3.3251 6.0354 6.4334 0.335 2.8737-1.0323 5.6519-3.4012 6.9075-0.885 0.4709-1.7604 0.7104-2.6099 0.7104m-3e-4 -0.1326c-0.6974 0-1.2783-0.165-1.7217-0.3608-1.2345-0.5469-2.1989-1.7151-2.461-2.9789-0.0615-0.2233-0.3528-1.5258 0.6067-3.1406 0.144-0.2444 0.4709-0.3334 0.7282-0.1926 0.2572 0.1376 0.3478 0.4482 0.2022 0.6925-0.7961 1.3414-0.5064 2.3705-0.5032 2.3786 0.0032 0.0178 0.0097 0.0324 0.0113 0.0518 0.1586 0.7864 0.7977 1.7912 1.8673 2.2669 0.9757 0.4304 2.1164 0.3285 3.2992-0.2977 1.9207-1.0194 3.0663-3.3947 2.7896-5.7765-0.3042-2.6245-2.1925-4.6147-5.1811-5.461-0.2831-0.07928-0.4433-0.36244-0.3608-0.63428 0.0857-0.26698 0.3819-0.42231 0.6666-0.34141 3.419 0.9676 5.5856 3.2734 5.94 6.3234 0.3252 2.8219-1.0129 5.5451-3.3349 6.7797-0.9643 0.5113-1.8203 0.6909-2.5484 0.6909m-4.9216-10.991c-1.2847 0-2.6196 0.38671-3.8105 1.1553-2.0258 1.3058-3.9044 4.0096-3.1018 7.6923 0.04692 0.2023 0.25565 0.3366 0.48057 0.2945 0.11164-0.021 0.20225-0.0841 0.26374-0.1715 0.05178-0.0842 0.06958-0.1812 0.05016-0.2751-0.61487-2.8187 0.41746-5.4044 2.7653-6.9156 1.9401-1.2492 4.2895-1.3624 5.9901-0.2864 1.0145 0.64238 1.5825 1.4595 1.644 2.3624 0.0517 0.77024-0.2897 1.529-0.9304 2.0759-0.1538 0.0793-0.6812 0.3123-2.0809 0.5534-0.11 0.0178-0.2055 0.0777-0.2686 0.1634-0.055 0.0826-0.0776 0.178-0.0582 0.2751 0.0388 0.2071 0.2492 0.3463 0.4708 0.3058 1.8026-0.309 2.3252-0.6229 2.4093-0.6812 0.8803-0.7249 1.3333-1.7167 1.2638-2.7394-0.0761-1.131-0.7864-2.1763-2-2.9449-0.911-0.57765-1.9821-0.86404-3.0873-0.86404m-6.5143 9.4107c-0.31228 0-0.58736-0.2136-0.65046-0.5081-0.83169-3.8122 1.1148-6.6146 3.2135-7.9674 2.2977-1.4805 5.118-1.5954 7.1794-0.28964 1.2847 0.81389 2.0388 1.9304 2.1197 3.1455 0.076 1.1068-0.4126 2.1796-1.3317 2.9401-0.013 0.0113-0.0291 0.021-0.0437 0.0291-0.1683 0.1197-0.7508 0.4255-2.5129 0.7265-0.3592 0.0615-0.7071-0.1699-0.7718-0.5162-0.0323-0.1634 0.0065-0.33 0.102-0.4692 0.1019-0.1456 0.2572-0.2443 0.4368-0.2735 1.3981-0.2394 1.8948-0.4676 1.9806-0.5129 0.5533-0.4773 0.8592-1.1537 0.8122-1.843-0.0534-0.81551-0.5792-1.5614-1.5226-2.1601-1.6116-1.0178-3.8526-0.90773-5.7085 0.28802-2.2524 1.4482-3.2426 3.9319-2.652 6.639 0.0356 0.165 0.00647 0.3333-0.089 0.4741-0.09546 0.1488-0.24918 0.2491-0.42878 0.2864-0.04369 0.0064-0.09062 0.0113-0.13269 0.0113m-6.4e-4 -0.1301c-0.24757 0-0.46924-0.165-0.52264-0.4061-0.81874-3.7475 1.0954-6.4998 3.1552-7.8299 2.2604-1.453 5.0224-1.5679 7.0418-0.28963 1.2475 0.79123 1.9789 1.8705 2.0582 3.0452 0.0712 1.0647-0.3981 2.0954-1.2848 2.8284-0.0097 0.0097-0.0226 0.0178-0.034 0.0259-0.1278 0.0873-0.6763 0.3996-2.4627 0.7038-0.2944 0.0518-0.5695-0.1359-0.6213-0.411-0.0518-0.2783 0.1424-0.542 0.432-0.5922 1.4061-0.2378 1.9207-0.4724 2.0178-0.5226 0.6116-0.5194 0.9336-1.2362 0.885-1.9676-0.0566-0.86082-0.6035-1.6423-1.584-2.2621-1.6537-1.0485-3.9514-0.93525-5.8461 0.28639-2.3009 1.4822-3.3122 4.0144-2.7119 6.7798 0.06149 0.2734-0.12459 0.5436-0.41099 0.6003-0.03721 0.0081-0.07443 0.0113-0.11164 0.0113m9.0844-4.5371c-0.1666 0-0.322 0.0987-0.3802 0.2541-0.6213 1.6375-0.5955 2.2216-0.5857 2.3219 0.2184 1.0873 0.8964 1.9562 1.8623 2.4142 0.4758 0.2216 0.9968 0.3349 1.5534 0.3349h0.0016c0.6942 0 1.4094-0.1715 2.1326-0.5145 2.1197-1.0016 3.3705-3.2896 3.1795-5.8251-0.1731-2.3219-1.6941-5.2248-5.448-6.4043-0.2136-0.06796-0.445 0.04045-0.5129 0.24271-0.0308 0.09223-0.0259 0.19093 0.0194 0.27831 0.0469 0.09546 0.131 0.16342 0.2378 0.1974 2.8656 0.90127 4.6973 3.0468 4.8979 5.7393 0.1667 2.2313-0.9093 4.2296-2.7394 5.0969-1.0873 0.5129-2.1115 0.576-2.9578 0.1764-0.7249-0.3447-1.2427-1-1.4174-1.8074 0.0016-0.1699 0.055-0.7217 0.5372-1.9983 0.0356-0.0906 0.0323-0.1926-0.0097-0.2783-0.0453-0.0955-0.1262-0.1683-0.2314-0.2039-0.0469-0.0162-0.0922-0.0243-0.1392-0.0243m2.4498 5.5856c-0.5955 0-1.1553-0.1197-1.6634-0.3608-1.042-0.4935-1.7718-1.4288-2.0015-2.5679-0.0033-0.0129-0.0065-0.0307-0.0097-0.0485-0.0211-0.2007-0.0081-0.8382 0.6003-2.4498 0.1229-0.3285 0.5064-0.5 0.8478-0.3802 0.1732 0.0566 0.3075 0.1779 0.3835 0.3365 0.0696 0.1553 0.0777 0.3269 0.0178 0.4838-0.4806 1.2702-0.521 1.7928-0.5226 1.8867 0.1537 0.6909 0.6181 1.2831 1.2702 1.5905 0.7734 0.3657 1.72 0.3042 2.7345-0.1763 1.733-0.8171 2.7491-2.72 2.5905-4.8413-0.1925-2.5824-1.9562-4.6422-4.7166-5.5095-0.1716-0.05501-0.3123-0.17151-0.3916-0.33008-0.0761-0.15048-0.0874-0.32362-0.0324-0.48057 0.1149-0.3317 0.4887-0.51455 0.8382-0.40452 3.8753 1.2168 5.4496 4.2248 5.6276 6.6308 0.1991 2.6455-1.1067 5.0354-3.3283 6.0839-0.7557 0.356-1.5097 0.5372-2.2427 0.5372zm0.0034-0.1294c-0.5712 0-1.1165-0.1149-1.6116-0.3495-1.0048-0.4741-1.7071-1.377-1.932-2.4757-0.0016-0.0129-0.0032-0.0259-0.0048-0.0404-0.0162-0.1489-0.0243-0.7573 0.5922-2.3835 0.0987-0.2653 0.4077-0.4012 0.6844-0.3058 0.2783 0.0939 0.4223 0.3867 0.3204 0.6505-0.4838 1.2815-0.5275 1.8203-0.5323 1.9271 0.1682 0.767 0.6569 1.3916 1.3462 1.7135 0.8106 0.3835 1.796 0.322 2.8478-0.1747 1.7815-0.8414 2.8268-2.7928 2.665-4.9691-0.1974-2.6358-1.9935-4.7393-4.8073-5.6244-0.2816-0.08899-0.4337-0.37539-0.3414-0.64237 0.0922-0.26698 0.3948-0.41423 0.6747-0.32685 3.817 1.2022 5.3623 4.1552 5.5386 6.5224 0.1942 2.5889-1.0857 4.927-3.2539 5.9529-0.7411 0.3495-1.4854 0.5259-2.186 0.5259m-4.4097-5.2881c-0.6731 0-1.3252 0.1829-1.8883 0.5389-0.99026 0.6294-1.5857 1.7362-1.6779 3.1212-0.15048 2.2491 1.3074 4.4222 3.7087 5.5338 1.0048 0.4644 2.1374 0.712 3.2782 0.712 1.9125 0 3.7393-0.6942 5.2781-2.0016 0.0809-0.0679 0.1246-0.1618 0.1327-0.2621 0.0048-0.0987-0.0291-0.1942-0.1003-0.2686-0.1489-0.1602-0.4078-0.1764-0.5744-0.0324-2.2524 1.9142-5.1131 2.3543-7.6551 1.1715-2.1116-0.9741-3.3899-2.864-3.2604-4.8089 0.07443-1.1601 0.53234-2.0355 1.322-2.5355 0.67308-0.4272 1.5259-0.5243 2.3414-0.267 0.1521 0.0842 0.6278 0.4061 1.542 1.4401 0.1456 0.1618 0.4045 0.1828 0.5744 0.0437 0.0825-0.0647 0.1311-0.157 0.1408-0.2573 0.0081-0.0987-0.0243-0.1958-0.0923-0.2734-1.1811-1.3333-1.7248-1.6036-1.8235-1.644l-0.0291-0.0129c-0.4029-0.1311-0.8139-0.1975-1.2168-0.1975m3.4206 10.166c-1.1796 0-2.3495-0.2541-3.3867-0.7362-2.4999-1.157-4.0176-3.4303-3.8623-5.7895 0.09871-1.4676 0.73784-2.6472 1.7993-3.3203 0.9676-0.6148 2.1795-0.7491 3.3251-0.3705 0.0162 0.0065 0.034 0.0113 0.0502 0.0162 0.1926 0.0841 0.7621 0.411 1.919 1.7167 0.1149 0.1311 0.1699 0.2978 0.1554 0.4677-0.013 0.1715-0.0971 0.3284-0.2363 0.4385-0.2783 0.2233-0.6957 0.1877-0.932-0.0761-0.911-1.0291-1.3721-1.3268-1.453-1.3754-0.7168-0.2232-1.4886-0.1359-2.0954 0.2492-0.71518 0.4547-1.131 1.2637-1.2038 2.3349-0.12135 1.8365 1.0987 3.6245 3.11 4.5565 2.4481 1.1343 5.2069 0.7119 7.3768-1.1327 0.2718-0.233 0.6909-0.2119 0.9352 0.0502 0.1181 0.1246 0.178 0.2913 0.1699 0.4612-0.0113 0.1747-0.089 0.3317-0.2249 0.4465-1.5873 1.3495-3.4708 2.0631-5.4464 2.0631m0.0013-0.1311c-1.2443 0-2.3964-0.288-3.3333-0.7233-2.453-1.1342-3.94-3.3575-3.7862-5.6616 0.09547-1.4255 0.71196-2.5727 1.7394-3.2216 0.93363-0.5906 2.1035-0.72 3.2151-0.3543 0.0129 0.0032 0.0259 0.0097 0.0404 0.0145 0.1424 0.0615 0.699 0.3593 1.8689 1.6812 0.1909 0.2136 0.1634 0.5356-0.0631 0.7168-0.2265 0.1829-0.5631 0.1537-0.754-0.0598-0.9207-1.0405-1.3883-1.3463-1.4838-1.4045-0.7799-0.2444-1.5889-0.1537-2.2313 0.254-0.75402 0.4773-1.1909 1.322-1.2637 2.4384-0.12459 1.8899 1.1246 3.7265 3.186 4.6827 2.4934 1.1553 5.304 0.7233 7.5159-1.1569 0.2184-0.1861 0.5566-0.1699 0.7524 0.0437 0.1974 0.2087 0.1796 0.5323-0.0421 0.7184-1.7394 1.4789-3.6374 2.0323-5.3606 2.0323m-3.4363-10.753c-0.88512 0-1.7832 0.2508-2.4983 0.7297-0.79286 0.5291-1.7459 1.5809-1.7766 3.5824-0.03722 2.4789 1.7362 4.8963 4.4157 6.016 0.9628 0.4013 1.9611 0.6068 2.9643 0.6068 1.9935 0 3.9352-0.8026 5.6164-2.3236 0.0776-0.0679 0.1213-0.1618 0.1246-0.2605 0.0016-0.1003-0.0373-0.1958-0.1085-0.2686-0.1553-0.1569-0.4142-0.165-0.576-0.0145-2.3025 2.0776-5.1066 2.6487-7.6939 1.5679-2.3478-0.9822-3.9659-3.165-3.9352-5.3121 0.02266-1.3333 0.51779-2.3624 1.4385-2.9757 1.0032-0.6715 2.2831-0.6957 3.1067-0.4239 0.0372 0.0097 1.3479 0.3835 2.4206 1.5922 0.144 0.1634 0.4013 0.1812 0.5728 0.0469 0.0826-0.0663 0.1327-0.157 0.1408-0.2589 0.0081-0.0987-0.0243-0.1958-0.0922-0.2718-1.1925-1.3463-2.6213-1.7815-2.7815-1.8252-0.4239-0.1392-0.8802-0.2071-1.3381-0.2071m3.105 11.195c-1.0371 0-2.0695-0.2104-3.0662-0.6262-2.775-1.1585-4.6131-3.6763-4.5743-6.2603 0.03236-2.1148 1.0485-3.2313 1.8931-3.796 1.1488-0.76373 2.741-0.98379 4.0565-0.555 0.1634 0.0437 1.6585 0.4984 2.8995 1.9029 0.1165 0.1294 0.1716 0.2944 0.157 0.466-0.0146 0.1715-0.0971 0.3284-0.2346 0.4368-0.2816 0.2249-0.699 0.1893-0.9337-0.0744-1.0177-1.1488-2.2572-1.5032-2.2685-1.508l-0.0372-0.0081c-0.7637-0.2541-1.9514-0.2282-2.8802 0.3899-0.84625 0.5647-1.3025 1.5194-1.3203 2.7637-0.03236 2.0436 1.5194 4.1277 3.7733 5.0678 2.4902 1.042 5.194 0.4886 7.4173-1.5194 0.2653-0.2427 0.686-0.2281 0.9352 0.0227 0.123 0.1246 0.1877 0.288 0.1845 0.4595-0.0049 0.1731-0.0793 0.3301-0.2088 0.4498-1.7329 1.5631-3.7345 2.3883-5.7927 2.3883m-9e-4 -0.1299c-1.0097 0-2.0242-0.2039-3.0161-0.6165-2.7248-1.1375-4.5322-3.6051-4.4934-6.139 0.03398-2.0565 1.0162-3.1423 1.8349-3.6892 1.1181-0.7459 2.665-0.95787 3.9432-0.5404 0.191 0.0534 1.6311 0.4951 2.8446 1.8656 0.1909 0.2136 0.1602 0.5356-0.0647 0.7168-0.2249 0.1813-0.5615 0.1537-0.7524-0.0582-1.0501-1.1893-2.3203-1.5453-2.3333-1.5485-0.0097-0.0033-0.021-0.0065-0.0307-0.0097-0.7929-0.2622-2.0275-0.2363-2.9934 0.4077-0.88185 0.589-1.3592 1.5825-1.377 2.8689-0.03398 2.0954 1.5517 4.2312 3.8526 5.1907 2.5387 1.0631 5.2927 0.5 7.5564-1.5436 0.2136-0.1926 0.5501-0.1845 0.7556 0.0178 0.2039 0.2055 0.1942 0.5275-0.0226 0.7217-1.7184 1.5549-3.7006 2.3559-5.7037 2.3559"/>
</svg>
