<svg width="24" height="24" version="1.1" viewBox="0 0 24 24" xmlns="http://www.w3.org/2000/svg">
 <style>path{fill:#000}@media (prefers-color-scheme:dark){path{fill:#fff}}</style>
 <path d="m12.043 1.9999c-1.7382 0-3.1504 1.4124-3.1504 3.1465v9.4532c-0.77734 0.8103-1.2168 1.8953-1.2168 3.0273 0 2.4083 1.9589 4.3711 4.3672 4.3711 2.4084 0 4.3672-1.9628 4.3672-4.3711 0-1.1299-0.4394-2.217-1.2168-3.0273v-9.4532c0-1.7341-1.4163-3.1465-3.1504-3.1465zm0 1.5293c0.8908 0 1.6172 0.72644 1.6172 1.6172v10.127l0.2598 0.2266c0.6124 0.5381 0.9609 1.3145 0.9609 2.1269 0 1.565-1.2729 2.8399-2.8379 2.8399s-2.8378-1.2749-2.8378-2.8399c0-0.8124 0.34855-1.5888 0.96095-2.1269l0.2598-0.2266v-10.127c0-0.89075 0.7264-1.6172 1.6171-1.6172zm0 4.8301c-0.4247 0-0.7675 0.34087-0.7675 0.76563v3.6016 3.4238c-0.5337 0.2779-0.9004 0.8356-0.9004 1.4766 0 0.9196 0.7504 1.668 1.6679 1.668 0.9176 0 1.668-0.7484 1.668-1.668 0-0.6412-0.3664-1.1988-0.9004-1.4766v-3.5839-3.4414c0-0.42476-0.3428-0.76563-0.7676-0.76563zm4.7286 0.9004c-0.4227 0-0.7618 0.34304-0.7618 0.76368 0 0.4247 0.3391 0.7676 0.7618 0.7676h3.6035c0.4247 0 0.7676-0.3429 0.7676-0.7676 0-0.42064-0.3429-0.76368-0.7676-0.76368h-3.6035z" clip-path="url(#clipPath105)"/>
</svg>
