<svg width="24" height="24" version="1.1" viewBox="0 0 24 24" xmlns="http://www.w3.org/2000/svg">
 <style>path{fill:#000}@media (prefers-color-scheme:dark){path{fill:#fff}}</style>
 <path d="m12.043 1.9999c-1.734 0-3.1504 1.4144-3.1504 3.1484v9.4531c-0.77732 0.8103-1.2168 1.8975-1.2168 3.0274 0 2.4082 1.9589 4.3711 4.3672 4.3711 2.4082 0 4.3672-1.9629 4.3672-4.3711 0-1.1299-0.4395-2.2171-1.2168-3.0274v-9.4531c0-1.734-1.4123-3.1484-3.1504-3.1484zm4.7285 1.3516c-0.4227 0-0.7637 0.345-0.7637 0.76562 0 0.42475 0.341 0.76563 0.7637 0.76563h3.6035c0.4248 0 0.7676-0.34088 0.7676-0.76563 0-0.42062-0.3428-0.76562-0.7676-0.76562h-3.6035zm-4.7285 0.17968c0.8907 0 1.6152 0.72647 1.6152 1.6172v10.125l0.2617 0.2285c0.6124 0.5381 0.959 1.3146 0.959 2.127 0 1.5649-1.271 2.8398-2.8359 2.8398-1.565 0-2.8379-1.2749-2.8379-2.8398 0-0.8124 0.34857-1.5889 0.96091-2.127l0.2598-0.2285v-10.125c0-0.89072 0.7265-1.6172 1.6172-1.6172zm0 1.6211c-0.4248 0-0.7676 0.34501-0.7676 0.76563v10.234c-0.5339 0.2777-0.9004 0.8354-0.9004 1.4766 0 0.9195 0.7505 1.6679 1.668 1.6679s1.668-0.7484 1.668-1.6679c0-0.641-0.3668-1.1988-0.9004-1.4766v-10.234c0-0.42062-0.3429-0.76563-0.7676-0.76563z"/>
</svg>
