<svg width="24" height="24" version="1.1" viewBox="0 0 24 24" xmlns="http://www.w3.org/2000/svg">
 <style>path{fill:#000}@media (prefers-color-scheme:dark){path{fill:#fff}}</style>
 <path d="m12.043 1.9999c-1.7381 0-3.1501 1.4131-3.1501 3.147v9.4532c-0.77729 0.8102-1.2171 1.8943-1.2171 3.0262 0 2.4081 1.959 4.3702 4.3672 4.3702 2.4081 0 4.3671-1.9621 4.3671-4.3702 0-1.1299-0.4398-2.216-1.2171-3.0262v-9.4532c0-1.734-1.4161-3.147-3.15-3.147zm0 1.5312c0.8906 0 1.6158 0.72511 1.6158 1.6158v10.124l0.2597 0.2266c0.6123 0.5381 0.9604 1.3168 0.9604 2.1292 0 1.5649-1.2711 2.839-2.8359 2.839-1.5649 0-2.836-1.2741-2.836-2.839 0-0.8124 0.34807-1.5911 0.9604-2.1292l0.2598-0.2266v-10.124c0-0.89069 0.7251-1.6158 1.6158-1.6158zm0 8.828c-0.4248 0-0.7672 0.3424-0.7672 0.7671v3.0232c-0.5344 0.2775-0.9 0.8353-0.9 1.4769 0 0.9195 0.7497 1.6671 1.6672 1.6671 0.9174 0 1.6671-0.7476 1.6671-1.6671 0-0.6416-0.3656-1.1994-0.9-1.4769v-3.0232c0-0.4247-0.3424-0.7671-0.7671-0.7671zm4.7265 0.9c-0.4226 0-0.761 0.3435-0.761 0.7641 0 0.4247 0.3384 0.7671 0.761 0.7671h3.6061c0.4248 0 0.7672-0.3424 0.7672-0.7671 0-0.4206-0.3424-0.7641-0.7672-0.7641z" clip-path="url(#clipPath105)"/>
</svg>
