<?xml version="1.0" encoding="UTF-8"?>
<svg width="24" height="24" version="1.1" viewBox="0 0 24 24" xmlns="http://www.w3.org/2000/svg">
 <style>path{fill:#000}@media (prefers-color-scheme:dark){path{fill:#fff}}</style>
 <path d="m12 2.2287c-5.3887 0-9.7713 4.3826-9.7713 9.7713 0 5.387 4.3826 9.7713 9.7713 9.7713 5.3887 0 9.7713-4.3843 9.7713-9.7713 0-5.3887-4.3826-9.7713-9.7713-9.7713zm0 1.7579c4.4176 0 8.0134 3.5958 8.0134 8.0134 0 4.4176-3.5958 8.0134-8.0134 8.0134-4.4176 0-8.0134-3.5958-8.0134-8.0134 0-4.4176 3.5958-8.0134 8.0134-8.0134zm0.86947 4.5689-0.2015 5.1578-3.0693 0.12135v1.4261l4.8027 0.18369-0.2683-6.889z" stroke-width=".57"/>
</svg>
