<?xml version="1.0" encoding="UTF-8"?>
<svg width="24" height="24" version="1.1" viewBox="0 0 24 24" xmlns="http://www.w3.org/2000/svg">
 <style>path{fill:#000}@media (prefers-color-scheme:dark){path{fill:#fff}}</style>
 <path d="m12 1.6158c-0.09929 0-0.1954 0.03907-0.26539 0.10909l-10.023 11.091c-0.10746 0.10744-0.14002 0.27029-0.08141 0.41029 0.05861 0.13999 0.19538 0.23284 0.34842 0.23284h3.266v8.9253h13.51v-8.9253h3.266c0.15304 0 0.28984-0.09285 0.34844-0.23284 0.0586-0.13999 0.02605-0.30284-0.0814-0.41029l-10.021-11.091c-0.07159-0.07001-0.16769-0.10909-0.26699-0.10909zm1.7811 3.7219h0.0098c0.03095 0.0016 0.06025 0.01791 0.07815 0.04396 0.0065 0.0081 0.0114 0.01791 0.01465 0.02768l0.0032 0.01628v0.01628c0 0.0098-0.0017 0.01954-0.0049 0.02931l-0.0048 0.01302c-0.0928 0.20189-0.1726 0.41356-0.24259 0.6301-0.0066 0.0228-0.01305 0.04395-0.0212 0.06675-0.03904 0.127-0.0749 0.25724-0.10904 0.38908-0.04885 0.1889-0.0912 0.38424-0.13024 0.58129-0.01796 0.08955-0.0342 0.17909-0.0505 0.27024-0.013 0.06675-0.0244 0.1319-0.0358 0.19864-0.0163 0.09445-0.03095 0.18724-0.0456 0.28164-0.0163 0.10095-0.03255 0.20355-0.0472 0.30449-0.0082 0.05694-0.0163 0.1156-0.02605 0.17254-0.01305 0.0961-0.0277 0.19215-0.04235 0.2866-0.01305 0.09439-0.0277 0.18884-0.04235 0.28329-0.0244 0.1612-0.04885 0.32234-0.07649 0.48194-0.0505 0.30444-0.10585 0.60562-0.17425 0.90032-0.03414 0.14655-0.07 0.29144-0.11069 0.43474-0.02605 0.09605-0.05535 0.19049-0.08465 0.28489-0.03095 0.0928-0.0635 0.18559-0.09605 0.27679-0.01796 0.0456-0.03585 0.08955-0.05375 0.13515-0.0358 0.08955-0.07325 0.17744-0.11394 0.26539-0.0212 0.04395-0.04075 0.08624-0.0619 0.12859-0.04395 0.0863-0.08955 0.16935-0.13674 0.25234-0.07165 0.12375-0.1498 0.24259-0.23444 0.35819-0.0847 0.1156-0.17584 0.22635-0.27354 0.33379-0.39398 0.42494-0.90687 0.77662-1.5841 1.0208l-0.0977 0.0277c-0.04235 0.013-0.0863 0.0228-0.12865 0.03255-0.0114 0.0017-0.02115 0.0049-0.03255 0.0065-0.0407 0.0098-0.0814 0.0163-0.1205 0.02445l-0.0081 0.0016c-0.044 0.0066-0.0863 0.01305-0.12865 0.01796-0.0114 0.0016-0.0228 0.0016-0.03255 0.0032-0.0391 0.0048-0.07815 0.0082-0.1156 0.0114l-0.01465 0.0016-0.127 0.0049h-0.03255c-0.01305 0-0.02605 0.0016-0.0391 0.0016-0.0179 0-0.0358-0.0016-0.05375-0.0016-0.01625 0-0.03089 0-0.04554-0.0017-0.03585 0-0.07005-0.0016-0.1042-0.0048-0.0098 0-0.01955 0-0.0277-0.0017-0.04395-0.0032-0.08789-0.0082-0.1319-0.013-0.0097-0.0017-0.02115-0.0033-0.03255-0.0049-0.03255-0.0049-0.06509-0.0097-0.09605-0.01465-0.0163-0.0017-0.03095-0.0049-0.0456-0.0082-0.0293-0.0049-0.057-0.0097-0.08464-0.0163-0.0163-0.0032-0.03095-0.0065-0.04725-0.0114l-0.08299-0.01949c-0.01465-0.0049-0.0293-0.0082-0.044-0.0114-0.03414-0.0098-0.06675-0.0212-0.10089-0.03095-0.0082-0.0032-0.0163-0.0049-0.0228-0.0065-0.0342-0.0114-0.06675-0.0228-0.09935-0.0342l-0.0016 0.0065c-0.20514 0.41844-0.35984 0.83847-0.49499 1.2293-0.07974 0.22464-0.28979 0.36628-0.51608 0.36628-0.06025 0-0.1205-0.0097-0.18075-0.03089-0.28489-0.0977-0.43468-0.41029-0.33539-0.69523 0.14655-0.42328 0.31424-0.87917 0.54543-1.3497 0.013-0.0293 0.0293-0.05535 0.0472-0.0798-0.0065-0.0065-0.013-0.013-0.01955-0.0179-0.01134-0.0097-0.02274-0.01955-0.03255-0.0293-0.02764-0.02605-0.05535-0.0521-0.08305-0.0798l-0.01134-0.0097c-0.03095-0.03095-0.06025-0.06185-0.0912-0.09445l-0.0244-0.0293c-0.0212-0.0228-0.04235-0.0456-0.0619-0.07-0.0097-0.0114-0.01955-0.02445-0.0293-0.03745-0.0179-0.02115-0.0358-0.04395-0.05375-0.06675l-0.0293-0.0391c-0.0179-0.0244-0.0358-0.04885-0.0521-0.07325-0.0082-0.0114-0.01624-0.0228-0.0244-0.0358-0.0228-0.0342-0.0456-0.0684-0.0684-0.1042l-0.0032-0.0082c-0.02445-0.03745-0.0456-0.07655-0.06675-0.1156-0.0082-0.0114-0.01305-0.02445-0.01955-0.03585-0.01465-0.02764-0.0293-0.05535-0.04235-0.08464-0.0081-0.01465-0.01465-0.0293-0.02274-0.04395-0.0114-0.0277-0.02445-0.05375-0.03585-0.0814-0.0065-0.01465-0.013-0.03095-0.01955-0.0456l-0.03414-0.08795c-0.0049-0.01465-0.0114-0.02764-0.0163-0.0407l-0.04395-0.13184c-0.03585-0.11884-0.06515-0.23609-0.0863-0.35494-0.02115-0.1156-0.0342-0.23284-0.0407-0.34844-0.0032-0.03089-0.0032-0.06184-0.0049-0.09439-0.0017-0.02935-0.0017-0.05865-0.0017-0.08795 0-0.0586 0.0033-0.11719 0.0066-0.17419 0.0016-0.0293 0.0032-0.0586 0.0065-0.08795 0.0082-0.08624 0.01955-0.17254 0.0342-0.25724l0.01624-0.07325 0.01471-0.07165c0.03904-0.19534 0.09929-0.39074 0.18234-0.58613 0.0407-0.09764 0.08789-0.19534 0.13999-0.29304 0.0684-0.13024 0.14655-0.26049 0.23284-0.39074 0.04395-0.0635 0.08955-0.12865 0.13674-0.19215 0.0472-0.06509 0.0977-0.12859 0.1498-0.19209 0.1042-0.12865 0.21654-0.25399 0.33704-0.37939 0.06019-0.06184 0.12209-0.12369 0.18719-0.18559 0.0635-0.06184 0.13024-0.12209 0.19864-0.18394 0.13674-0.1205 0.28004-0.23934 0.43143-0.35659 0.0391-0.0293 0.07655-0.0586 0.1156-0.0863 0.07815-0.0586 0.15795-0.1156 0.23934-0.17094 0.0814-0.057 0.16444-0.11235 0.24909-0.16769 0.0847-0.05535 0.171-0.1091 0.26055-0.16279 0.08789-0.05375 0.17744-0.10585 0.27024-0.15795 0.0456-0.02605 0.0928-0.05044 0.1384-0.07649 0.14005-0.07655 0.28494-0.15145 0.43309-0.2231 0.0977-0.04885 0.19699-0.09439 0.29959-0.14164 0.10095-0.04554 0.20349-0.09114 0.30934-0.13509 0.1042-0.044 0.20999-0.0863 0.31749-0.12865 0.10744-0.04235 0.21654-0.08305 0.32724-0.12209 0.16604-0.05865 0.33374-0.1156 0.50633-0.16935 0.1156-0.0358 0.23119-0.07165 0.34844-0.10419 0.52748-0.14978 1.0827-0.27353 1.6606-0.3647zm-3.59 3.3327c-0.15795 0.01955-0.30934 0.09935-0.41678 0.2345-0.50149 0.63982-0.95897 1.2732-1.3628 1.8788-0.19209 0.28654-0.11394 0.67243 0.1726 0.86287 0.10579 0.07165 0.22469 0.10585 0.34354 0.10585 0.20189 0 0.39889-0.09605 0.51933-0.27514 0.38754-0.58123 0.82713-1.1886 1.309-1.8023 0.21329-0.27189 0.1661-0.66428-0.10579-0.87592-0.13515-0.10585-0.30119-0.14814-0.45914-0.12865zm4.085 2.4438c0.05535 0 0.11719 0.0228 0.15789 0.05375 0.0505 0.0358 0.10095 0.11235 0.1498 0.20674l2.5594 5.0504 0.0017-0.0016c0.22954 0.44608 0.36144 0.95082 0.36144 1.4864 0 1.7844-1.4458 3.2302-3.2286 3.2302-1.7844 0-3.2302-1.4457-3.2302-3.2302 0-0.53563 0.13024-1.0404 0.36309-1.4864v0.0016l2.5594-5.0504c0.04885-0.09439 0.09929-0.17094 0.1498-0.20674 0.04229-0.03095 0.10254-0.05375 0.15629-0.05375z" stroke-width=".57"/>
</svg>
