<?xml version="1.0" encoding="UTF-8"?>
<svg width="24" height="24" version="1.1" viewBox="0 0 24 24" xmlns="http://www.w3.org/2000/svg">
 <style>path{fill:#000}@media (prefers-color-scheme:dark){path{fill:#fff}}</style>
 <path d="m11.999 1.6297c-0.0992 0-0.19393 0.04017-0.26374 0.10998l-10.009 11.076c-0.10839 0.10655-0.14025 0.26974-0.08146 0.40936 0.05695 0.13962 0.19476 0.23217 0.34724 0.23217h3.2616v8.9132h1.2474v-10.16h-2.5488l8.0466-8.906 8.0486 8.906h-2.5478v10.16h1.2474v-8.9132h3.2606c0.15248 0 0.29029-0.09255 0.34724-0.23217 0.05879-0.13962 0.02611-0.3028-0.08045-0.40936l-10.009-11.076c-0.06981-0.06981-0.16575-0.10998-0.26679-0.10998zm2.1568 5.9642c-3.4905 0.55478-5.9925 2.4637-6.347 4.2219l-0.02546 0.12423c-0.06981 0.38579-0.04977 0.79194 0.07332 1.1924 0.12805 0.41581 0.35437 0.77266 0.64458 1.057-0.02539 0.03291-0.05641 0.05997-0.07535 0.09877-0.20024 0.40784-0.34369 0.80118-0.47045 1.1649-0.1139 0.32517 0.05853 0.68119 0.38186 0.79325 0.06797 0.02388 0.13772 0.03462 0.2057 0.03462 0.2572 0 0.50039-0.16132 0.58858-0.41852 0.1139-0.32701 0.24156-0.67841 0.41241-1.0275 0.0047-0.0096 4e-3 -0.01983 0.0081-0.02953 0.23059 0.06867 0.47115 0.10896 0.71688 0.10896 0.22045 0 0.44246-0.02898 0.66291-0.08961l0.08452-0.02444c3.0643-1.1078 2.1645-4.772 3.2209-7.0812l0.0051-0.0112c0.0055-0.01653 0.0055-0.0354 0-0.05193-0.01102-0.03674-0.04248-0.06028-0.07739-0.06212zm-1.6405 1.6904c-0.0496 0.28659-0.09216 0.57265-0.13442 0.85741-0.27924 1.8996-0.50162 3.0041-1.7545 3.4744l-0.02851 0.0092c-0.10839 0.02939-0.21868 0.04175-0.32891 0.04175-0.56399 0-1.0548-0.3621-1.222-0.90221-0.06062-0.19473-0.0738-0.39302-0.04073-0.58959l0.0224-0.10488 0.0021-0.0051v-4e-3c0.11023-0.5493 0.66614-1.2154 1.4837-1.783 0.57318-0.39682 1.2551-0.73482 2.001-0.99386zm-1.3951 1.2545c-0.1054 0.01309-0.20523 0.0668-0.27596 0.15682-0.42621 0.54195-0.81406 1.0758-1.1558 1.5865-0.12676 0.19106-0.07599 0.45061 0.11507 0.57737 0.06981 0.04777 0.15114 0.07026 0.23013 0.07026 0.13411 0 0.26621-0.0651 0.3452-0.18635 0.33068-0.49418 0.7076-1.0102 1.1191-1.5356 0.14146-0.18004 0.10774-0.44121-0.0723-0.5845-0.09002-0.07073-0.20008-0.09761-0.30549-0.08452zm2.5529 3.8685c-0.04409 0-0.09116 0.01787-0.12423 0.04175-0.03858 0.0294-0.08158 0.08862-0.12016 0.16395l-2.0295 4.009v-0.0021c-0.18371 0.35273-0.2892 0.75482-0.2892 1.1792 0 1.4164 1.1485 2.5631 2.5631 2.5631s2.5631-1.1466 2.5631-2.5631c0-0.42437-0.10447-0.82646-0.28818-1.1792v0.0021l-2.0305-4.009c-0.03858-0.07532-0.08056-0.13455-0.11914-0.16395-0.03307-0.02388-0.083-0.04175-0.12525-0.04175zm0 2.4816 1.1629 2.2952 0.03666 0.07128c0.07716 0.17085 0.11608 0.35455 0.11608 0.54377 0 0.72566-0.58998 1.3177-1.3156 1.3177s-1.3156-0.59202-1.3156-1.3177c0-0.19106 0.03893-0.37476 0.11609-0.54377l0.03666-0.07128z" stroke-width=".57"/>
</svg>
