<?xml version="1.0" encoding="UTF-8"?>
<svg width="24" height="24" version="1.1" viewBox="0 0 24 24" xmlns="http://www.w3.org/2000/svg">
 <style>path{fill:#000}@media (prefers-color-scheme:dark){path{fill:#fff}}</style>
 <path d="m12.03 2.5126c-0.10878 0-0.21914 0.08203-0.30281 0.24604l-2.6696 5.2547c-0.16735 0.32968-0.41607 0.88098-0.5533 1.2257 0 0-0.19928 0.50015-0.19928 1.1411 0 2.04 1.6533 3.695 3.695 3.695s3.695-1.655 3.695-3.695c0-0.57402-0.13916-0.96744-0.13916-0.96744-0.12217-0.34809-0.35812-0.90606-0.52547-1.2357l-2.6975-5.415c-0.08368-0.16568-0.19403-0.24938-0.30281-0.24938zm-9.6933 7.0293v10.411c0 0.84513 0.68897 1.5341 1.5341 1.5341h16.258c0.84513 0 1.5341-0.68897 1.5341-1.5341v-10.411h-1.7378v10.207h-15.851v-10.207z" stroke-width=".57"/>
</svg>
