<?xml version="1.0" encoding="UTF-8"?>
<svg width="24" height="24" version="1.1" viewBox="0 0 24 24" xmlns="http://www.w3.org/2000/svg">
 <style>path{fill:#000}@media (prefers-color-scheme:dark){path{fill:#fff}}</style>
 <path d="m11.988 4.4854c-3.8677 2e-3 -7.5506 1.4578-10.367 4.0991-0.07272 0.06879-0.11382 0.16139-0.11578 0.26162-2e-3 0.09826 0.03586 0.1931 0.10465 0.26385l0.82939 0.84275c0.07272 0.07271 0.16729 0.11021 0.26162 0.11021 0.0904 0 0.18085-0.03311 0.2516-0.09797 2.4605-2.2994 5.6733-3.5658 9.0476-3.5658 3.3724 0 6.5871 1.2665 9.0476 3.5658 0.14543 0.1356 0.37146 0.12926 0.511-0.01224l0.8294-0.84275c0.07075-0.07075 0.10884-0.16584 0.10688-0.26607-0.0019-0.09826-0.04306-0.19061-0.11578-0.2594-2.8182-2.6413-6.4992-4.0971-10.367-4.0991zm0.01225 3.8308c-2.8595 0-5.5914 1.0653-7.6883 2.9992-0.07272 0.06878-0.11604 0.16224-0.11801 0.26051-0.0039 0.10023 0.03475 0.19532 0.10354 0.26607l0.82939 0.84498c0.07272 0.07271 0.16729 0.10799 0.26162 0.10799 0.08844 0 0.17948-0.032 0.24826-0.09686 1.7412-1.5899 4.0013-2.4659 6.3635-2.4659 2.3623 0 4.6223 0.87601 6.3635 2.4659 0.14543 0.13364 0.36924 0.1284 0.50877-0.01113l0.8294-0.84498c0.06878-0.07075 0.1055-0.16584 0.10353-0.26608-0.0019-0.10023-0.04418-0.19172-0.11689-0.26051-2.0989-1.9338-4.8288-2.9992-7.6883-2.9992zm0.0011 3.833c-1.8474 0-3.6207 0.67352-4.9964 1.8959-0.07468 0.06682-0.11938 0.16139-0.12135 0.26162-0.0039 0.10023 0.03278 0.19866 0.10354 0.26941l0.83162 0.84498c0.07075 0.07272 0.16532 0.11022 0.26162 0.11022 0.08451 0 0.17057-0.02925 0.23936-0.09018 1.018-0.8883 2.3256-1.376 3.6816-1.376 1.3541 0 2.6603 0.48771 3.6783 1.376 0.14543 0.12774 0.36537 0.11753 0.50098-0.02004l0.83162-0.84498c0.07075-0.07075 0.10858-0.16918 0.10465-0.26941-0.0019-0.10023-0.04778-0.1948-0.12246-0.26162-1.3757-1.2224-3.1477-1.8959-4.9931-1.8959zm-0.0022 3.8297c-0.84507 0-1.6351 0.27579-2.2856 0.79266-0.08058 0.06485-0.12992 0.1608-0.13582 0.26496-0.0079 0.10219 0.03194 0.20475 0.10465 0.27943l2.0551 2.0907c0.06879 0.06879 0.16336 0.10799 0.26162 0.10799 0.09826 0 0.19284-0.0392 0.26162-0.10799l2.0573-2.0907c0.07271-0.07468 0.11054-0.17724 0.10465-0.27943-0.0059-0.10416-0.05551-0.20011-0.13805-0.26496-0.64854-0.51687-1.4405-0.79266-2.2856-0.79266z" stroke-width=".57"/>
</svg>
